<?xml version="1.0" encoding="utf-8"?>
<!-- Generator: Adobe Illustrator 16.0.0, SVG Export Plug-In . SVG Version: 6.00 Build 0)  -->
<!DOCTYPE svg PUBLIC "-//W3C//DTD SVG 1.1//EN" "http://www.w3.org/Graphics/SVG/1.1/DTD/svg11.dtd">
<svg version="1.1" id="Layer_1" xmlns="http://www.w3.org/2000/svg" xmlns:xlink="http://www.w3.org/1999/xlink" x="0px" y="0px"
	 width="272.3px" height="400.9px" viewBox="0 0 272.3 400.9" enable-background="new 0 0 272.3 400.9" xml:space="preserve">
<g display="none">
	<defs>
		<rect id="SVGID_1_" x="34.5" y="29.4" width="203.3" height="342.2"/>
	</defs>
	<clipPath id="SVGID_2_" display="inline">
		<use xlink:href="#SVGID_1_"  overflow="visible"/>
	</clipPath>
	<path display="inline" clip-path="url(#SVGID_2_)" fill="#D3D3D2" d="M192.7,371.5H34.5V74.4c0-24.9,20.2-45.1,45.1-45.1h158.2
		v297.1C237.8,351.3,217.5,371.5,192.7,371.5 M36.5,369.5h156.2c23.8,0,43.1-19.3,43.1-43.1V31.4H79.6c-23.8,0-43.1,19.3-43.1,43.1
		V369.5z"/>
</g>
<g>
	<defs>
		<rect id="SVGID_3_" y="0" width="272.3" height="400.9"/>
	</defs>
	<clipPath id="SVGID_4_">
		<use xlink:href="#SVGID_3_"  overflow="visible"/>
	</clipPath>
	<path clip-path="url(#SVGID_4_)" fill="#F0C718" d="M188.3,293.6c6.7-7.3,13.6-15.5,20.1-23.1c0.6-0.7,1.2-1.5,1.8-2.2l0.1-0.1
		l0.2,0c1.1,0.1,2.2,0.2,3.4,0.2c6.3,0,12.4-1.7,15.5-2.7l1-0.3l-0.7,0.8c-16.2,18.1-25.7,24.6-41,28l-0.9,0.2L188.3,293.6z
		 M83.7,294.1c-15.3-3.4-24.8-9.9-41-28l-0.7-0.8l1,0.3c3.1,1,9.2,2.7,15.5,2.7c1.1,0,2.3-0.1,3.4-0.2l0.2,0l0.1,0.1
		c0.6,0.7,1.2,1.5,1.8,2.2c6.5,7.7,13.4,15.9,20.1,23.1l0.6,0.7L83.7,294.1z M227.1,227.1c0-1.9,0-3.7-0.1-5.3l0-1.8
		c-0.3-11.9-3.2-18.5-6.4-25.5l-0.1-0.3l0.3-0.1c13.9-3.6,20.2-14,22.2-18.3l0.2-0.5l0.3,0.5c4.5,9,6,25.6,3.8,43.3l-0.1,0.6
		l-0.1,0.1c-1.5,1.2-9.5,7.5-19.8,7.6l-0.3,0L227.1,227.1z M44.9,227.4c-10.3-0.1-18.3-6.3-19.8-7.6l-0.1-0.1l-0.1-0.6
		c-2.1-17.7-0.7-34.3,3.8-43.3l0.3-0.5l0.2,0.5c2.1,4.3,8.3,14.7,22.2,18.3l0.3,0.1l-0.1,0.3c-3.2,7-6.1,13.5-6.4,25.5l0,1.6l0,0.6
		c0,1.5-0.1,3.1,0,4.9l0,0.3L44.9,227.4z M136.2,171.5c-2.9,0-5.3-2.4-5.3-5.3c0-2.9,2.4-5.3,5.3-5.3c2.9,0,5.3,2.4,5.3,5.3
		C141.5,169.1,139.1,171.5,136.2,171.5 M170.5,158c-1.7,0-3.3-1.2-4-2.9c-0.4-1.1-0.5-2.3-0.1-3.4c0.4-1,1.1-1.8,2.1-2.2
		c0.4-0.2,0.8-0.2,1.3-0.2c1.7,0,3.3,1.2,4,2.9c0.4,1.1,0.5,2.3,0.1,3.4c-0.4,1-1.1,1.8-2.1,2.2C171.4,157.9,170.9,158,170.5,158
		 M101.8,158c-0.5,0-0.9-0.1-1.3-0.2c-1-0.4-1.7-1.2-2.1-2.2c-0.4-1.1-0.4-2.2,0.1-3.4c0.7-1.8,2.3-2.9,4-2.9c0.5,0,0.9,0.1,1.3,0.2
		c1,0.4,1.7,1.2,2.1,2.2c0.4,1.1,0.4,2.2-0.1,3.4C105.1,156.8,103.5,158,101.8,158 M210.3,102.2c-1.8-0.8-4.6-1.8-8.5-3l-0.2-0.1
		l0-0.2c0.2-2.3,0.4-8.6-1.3-16.3l-0.1-0.4l0.4,0c0.1,0,0.2,0,0.3,0c4.1,0,6.6-2.1,8-3.8l0.4-0.5l0.1,0.6c2.6,10.8,2,20.4,1.2,23.4
		l-0.1,0.3L210.3,102.2z M61.6,102c-0.7-2.9-1.3-12.5,1.2-23.4l0.1-0.6l0.4,0.5c1.4,1.7,3.9,3.8,8,3.8c0.1,0,0.2,0,0.3,0l0.4,0
		L72,82.7c-1.7,8.1-1.4,14.5-1.3,16.3l0,0.2l-0.2,0.1c-3.9,1.2-6.8,2.2-8.5,3l-0.3,0.1L61.6,102z M200.2,98.8
		c-4.5-1.3-8.8-2.4-10.2-2.8l-0.2-0.1l-0.1-0.3c0.2-1.3,0.2-2.6,0.3-3.9l0-0.4l0.4,0.1c1.3,0.5,2.6,0.7,4,0.7c2.6,0,4.8-0.8,5.8-1.2
		l0.4-0.2l0,0.4c0.3,3.5,0.2,6.1,0.1,7.3l0,0.4L200.2,98.8z M71.7,98.6c-0.1-1.2-0.2-3.8,0.1-7.3l0-0.4l0.4,0.2
		c1.1,0.5,3.3,1.2,5.8,1.2c1.4,0,2.7-0.2,4-0.7l0.4-0.1l0,0.4c0,1.3,0.1,2.6,0.3,3.9l0,0.2L82.5,96c-1.5,0.4-5.8,1.5-10.3,2.8
		l-0.3,0.1L71.7,98.6z M156.4,33.2c-5-0.7-10.4-1-16.1-1c-1.4,0-2.8,0-4.2,0.1c-1.4,0-2.8-0.1-4.2-0.1c-5.6,0-11,0.4-16.1,1l-0.2,0
		l-10.1-20.4l21.7,13c0.1,0,0.2,0.1,0.3,0.1c0,0,0.1,0,0.1,0c0.1,0,0.3-0.1,0.3-0.3l6.5-13.2l0.2,0c0.4,0.1,0.8,0.1,1.1,0.1
		c0.1,0,0.2,0,0.3,0c0.2,0,0.3,0,0.4,0c0.4,0,0.7,0,1.1-0.1l0.2,0l6.5,13.2c0.1,0.1,0.2,0.2,0.3,0.3c0,0,0.1,0,0.1,0
		c0.1,0,0.2,0,0.3-0.1l21.6-13l-10.1,20.4L156.4,33.2z M170.5,11.5c-2.8,0-5.1-2.3-5.1-5.1c0-2.8,2.3-5.1,5.1-5.1s5.1,2.3,5.1,5.1
		C175.6,9.2,173.3,11.5,170.5,11.5 M136.5,11.5c-0.1,0-0.2,0-0.3,0c-0.1,0-0.2,0-0.4,0c-2.8,0-5.1-2.3-5.1-5.1
		c0-2.8,2.3-5.1,5.1-5.1c0.1,0,0.1,0,0.2,0c0,0,0.1,0,0.2,0c0.1,0,0.1,0,0.2,0c0.1,0,0.1,0,0.2,0c2.8,0,5.1,2.3,5.1,5.1
		C141.6,9.2,139.3,11.5,136.5,11.5 M101.8,11.5c-2.8,0-5.1-2.3-5.1-5.1c0-2.8,2.3-5.1,5.1-5.1c2.8,0,5.1,2.3,5.1,5.1
		C106.9,9.2,104.6,11.5,101.8,11.5"/>
	<path clip-path="url(#SVGID_4_)" fill="#EAA022" d="M171.6,8c1.5-1.5,2.5-3,3-4.6c0.6,0.9,1,1.9,1,3c0,2.8-2.3,5.1-5.1,5.1
		c-1.9,0-3.5-1.1-4.4-2.6C167.7,9.4,169.9,9.6,171.6,8 M137.8,12.4l-0.2,0c-0.4,0.1-0.8,0.1-1.1,0.1c-0.1,0-0.2,0-0.4,0
		c-0.1,0-0.2,0-0.3,0c-0.4,0-0.7,0-1.1-0.1l-0.2,0l-0.5,1c0.6,0.2,1.3,0.4,2,0.4c0.4,3.1,1.3,11.5-1.2,18.4c0.5,0,0.9,0,1.4,0
		c1.4,0,2.8-0.1,4.2-0.1c5.6,0,11,0.3,16.1,1l0.2,0l9.1-18.3c-2.9,2.2-13.5,10-20.6,10.9l0,0c-0.1,0-0.2,0.1-0.3,0.1
		c0,0-0.1,0-0.1,0c0.1-0.2-0.3-0.3-0.3-0.3L137.8,12.4z M227.5,191.6c-2,1-4.2,1.9-6.7,2.5l-0.3,0.1l0.1,0.3
		c3.2,7,6.1,13.5,6.4,25.5l0,1.8c0,1.6,0.1,3.4,0.1,5.3l0,0.3l0.3,0c1.3,0,2.6-0.1,3.8-0.3C233.9,213.7,230.6,200.1,227.5,191.6
		 M171.8,157.8c1-0.4,1.7-1.2,2.1-2.2c0.4-1.1,0.4-2.2-0.1-3.4c-0.3-0.7-0.7-1.3-1.2-1.7c-0.1,3-0.9,6.3-4.2,6.9
		c0.6,0.4,1.4,0.6,2.1,0.6C170.9,158,171.4,157.9,171.8,157.8 M201.5,99l0,0.2l0.2,0.1c3.9,1.2,6.8,2.2,8.5,3l0.3,0.1l0.1-0.3
		c0.5-2,0.9-7.2,0.3-13.8c-3.5,4-9.3,2.4-9.3,2.4c-0.1,0.2-0.1,0.4-0.2,0.6C201.7,94.8,201.6,97.6,201.5,99 M201.6,90.6
		c0.1-0.4,0.2-0.7,0.3-0.9C201.8,90.2,201.6,90.6,201.6,90.6 M189.9,96c1.4,0.4,5.7,1.5,10.2,2.8l0.3,0.1l0-0.4c0.1-1,0.2-3,0-5.7
		c-2.9,3.9-9.3,2.2-10.8,1.7c0,0.4-0.1,0.8-0.1,1.1l0.1,0.3L189.9,96z M202.6,87.4C202.6,87.2,202.6,87.2,202.6,87.4 M210.3,268.2
		l-0.1,0.1c-0.6,0.7-1.2,1.5-1.8,2.2c-6.5,7.7-13.4,15.8-20.1,23.1l-0.6,0.7l0.9-0.2c0.1,0,0.2,0,0.3-0.1c0.9-0.6,1.8-1.3,2.8-2
		c8.3-6.7,15.5-14.8,21.4-23.6c-0.9,0-1.7-0.1-2.6-0.2L210.3,268.2z M45.2,227.4l0-0.3c0-1.8,0-3.4,0-4.9l0-0.6l0-1.6
		c0.3-11.9,3.2-18.5,6.4-25.5l0.1-0.3l-0.3-0.1c-3.2-0.8-6-2.1-8.5-3.5c-3.1,9.2-6.2,22.4-5.1,35.7c2.1,0.6,4.5,1,6.9,1L45.2,227.4z
		 M61.6,102l0.1,0.3l0.3-0.1c1.8-0.8,4.6-1.8,8.5-3l0.2-0.1l0-0.2c-0.1-0.9-0.2-2.9-0.1-5.6c-2.1,3.1-6.4,2.9-9.7,2.1
		C61.1,98.5,61.3,100.8,61.6,102 M84.6,294.3l-0.6-0.7c-6.6-7.3-13.6-15.4-20.1-23.1c-0.6-0.7-1.2-1.5-1.8-2.2l-0.1-0.1l-0.2,0
		c-1.1,0.1-2.2,0.2-3.4,0.2c-1.4,0-2.7-0.1-4.1-0.2c6.1,8.7,13.9,16.7,23.9,24.5c1.7,0.5,3.5,1,5.4,1.4L84.6,294.3z M131.5,9.2
		c0.9,1.4,2.5,2.3,4.3,2.3c0.1,0,0.2,0,0.4,0c0.1,0,0.2,0,0.3,0c2.8,0,5.1-2.3,5.1-5.1c0-1.4-0.6-2.7-1.5-3.6
		c-0.3,1.8-1.3,3.7-3.1,5.4C135.3,9.9,133.1,9.7,131.5,9.2 M71.7,92.8c-0.1,2.7,0,4.7,0,5.7l0,0.4l0.3-0.1c4.5-1.3,8.8-2.4,10.3-2.8
		l0.2-0.1l0-0.2c-0.1-0.7-0.1-1.4-0.2-2.1C76.9,97.1,73,94.1,71.7,92.8 M97.5,9.2c0.9,1.4,2.5,2.4,4.3,2.4c2.8,0,5.1-2.3,5.1-5.1
		c0-1-0.3-2-0.8-2.8c-0.4,1.5-1.4,3.1-3,4.5C101.4,9.9,99.1,9.7,97.5,9.2 M139.5,162.1c0,2-0.5,4.4-2.3,6c-1.6,1.4-3,2-4.2,2.3
		c0.9,0.7,2,1.1,3.2,1.1c2.9,0,5.3-2.4,5.3-5.3C141.5,164.5,140.7,163.1,139.5,162.1 M105.8,155.1c0.4-1.1,0.5-2.3,0.1-3.4
		c-0.3-0.8-0.8-1.5-1.5-1.9c0.2,2.1,0.1,6.3-3.6,8c0.3,0.1,0.7,0.2,1.1,0.2C103.5,158,105.1,156.8,105.8,155.1 M105.6,12.8l0.1,0.1
		c0,0,0,0,0.1,0L105.6,12.8z"/>
	<path clip-path="url(#SVGID_4_)" fill="#FCF6B5" d="M100.1,7.3c-1.1,0-2-0.9-2-2s0.9-2,2-2c1.1,0,2,0.9,2,2S101.2,7.3,100.1,7.3
		 M134.6,6.8c1,0,1.9-0.8,1.9-1.9s-0.8-1.9-1.9-1.9s-1.9,0.8-1.9,1.9S133.6,6.8,134.6,6.8 M169.1,3.1c-1.1,0-2,0.9-2,2s0.9,2,2,2
		s2-0.9,2-2S170.2,3.1,169.1,3.1 M134.9,23.5c0.9-5.2,0.6-9.8-0.9-7.6c0,0-3.8,8.8-3.9,10.8S134,28.7,134.9,23.5 M105.6,12.9
		c0,0,6.2,11.3,9.7,14s9.5,2.9,5.9-1.2S105.6,12.9,105.6,12.9 M63.3,83.5c-0.4,1.4-0.8,2.6-0.6,6.9s3.1,4.1,4,3.2s1.2-6.9,1.5-8.8
		S64,80.6,63.3,83.5 M206.9,88.6c0.9-1.5,0.5-7.5-0.1-7.1s-3,1.9-4.5,1.9c0,0,0.5,4.2,1.1,5.5S206,90.1,206.9,88.6 M101.2,151.6
		c-0.9,0-1.7,0.8-1.7,1.7c0,0.9,0.8,1.7,1.7,1.7s1.7-0.8,1.7-1.7C102.9,152.3,102.1,151.6,101.2,151.6 M134.8,162.8
		c-1.2,0-2.2,1-2.2,2.2c0,1.2,1,2.2,2.2,2.2s2.2-1,2.2-2.2C137,163.8,136,162.8,134.8,162.8 M168.8,151.1c-0.9,0-1.6,0.7-1.6,1.6
		c0,0.9,0.7,1.6,1.6,1.6c0.9,0,1.6-0.7,1.6-1.6C170.4,151.8,169.7,151.1,168.8,151.1 M38.5,190.5c-1.2-0.5-7.7-8.8-8.2-7.8
		c-4.8,9.1-4.8,28.4-4.1,33.1s6,4.9,7,4.6s1.5-5,2.2-12S39.8,191,38.5,190.5 M61.4,280.1c-2.4-2-8.2-9.2-10.4-9.9
		c-2.6-0.9-1.9,1.4,2.4,5S63.8,282.1,61.4,280.1 M245,195.6c-1.1-8.8-1.8-12.9-5-9.8c-2.6,2.5-4.9,5.5-6.8,6.5s2.4,11.7,2.2,19.9
		s0.4,9.1,4.8,8.1S246.1,204.3,245,195.6 M213.6,271.2c0,0-2.3,3.7-6.2,7.3s-11.7,12.3-5.8,8.7c5.8-3.7,18-13.7,20.3-15.8
		S217,270.7,213.6,271.2"/>
	<path clip-path="url(#SVGID_4_)" fill="#E81D25" d="M213.8,267.3c-0.8,0-1.5,0-2.2-0.1l-0.5,0l0.3-0.4c13.3-17.1,15.3-30,15.6-38.1
		l0-0.3l0.3,0c9.2-0.1,16.5-4.8,19.2-6.8l0.5-0.4l-0.1,0.7c-2.5,17.5-7.9,32.4-15.3,41.8l0,0.1l-0.1,0
		C230,264.4,222,267.3,213.8,267.3L213.8,267.3z M58.5,267.3c-8.4,0-16.8-3.2-17.7-3.5l-0.1,0l0-0.1c-7.4-9.5-12.9-24.3-15.3-41.8
		l-0.1-0.7l0.5,0.4c2.7,2,10,6.7,19.2,6.8l0.3,0l0,0.3c0.4,8.2,2.4,21,15.7,38.1l0.3,0.4l-0.5,0C60,267.3,59.3,267.3,58.5,267.3
		 M219.9,193.1c-2.9-6.5-5.6-13.2-6.5-24.3c-1.5-17.6,7.4-24.5,12.8-27.1c2.1-1,5.3-2.1,9.3-2.1c2.5,0,5,0.5,7.3,1.4l0.3,0.1
		l-0.2,0.3c-2.5,3.2-9.9,15-0.3,32.7l0.1,0.1l0,0.1c-0.6,1.5-6.4,14.9-22.3,18.9l-0.2,0.1L219.9,193.1z M52.1,193.2
		c-15.9-4-21.7-17.4-22.3-18.9l0-0.1l0.1-0.1c9.6-17.7,2.2-29.5-0.3-32.7l-0.2-0.3l0.4-0.1c2.3-0.9,4.8-1.4,7.3-1.4
		c3.9,0,7.2,1.2,9.3,2.1c5.4,2.6,14.3,9.5,12.8,27.1c-0.9,11.1-3.6,17.8-6.5,24.3l-0.1,0.2L52.1,193.2z M206.9,140.1
		c-2.7-7.3-11.7-15.9-17.4-18.3c-1.4-0.6-2.8-0.8-4.3-0.8c-3.4,0-6.6,1.5-8.7,4.1l-0.5-0.3c1.4-3.4,1.9-6.1,2-6.8l0-0.1l0.1-0.1
		c2-1.9,3.7-4,5.3-6.2l0.1-0.2l0.2,0.1c2.4,0.8,14.6,5.2,18.5,10.1c4,4.9,5.7,11,5.2,18.5L206.9,140.1z M64.9,140
		c-0.5-7.5,1.2-13.5,5.2-18.5c3.9-4.8,16.1-9.2,18.5-10.1l0.2-0.1l0.1,0.2c1.5,2.1,3.3,4.2,5.3,6.2l0.1,0.1l0,0.1
		c0.1,0.7,0.6,3.4,2,6.8l-0.5,0.3c-2.2-2.6-5.4-4.1-8.7-4.1c-1.5,0-2.9,0.3-4.3,0.8c-5.7,2.3-14.7,11-17.4,18.3L64.9,140z
		 M194.3,91.3c-1.5,0-2.9-0.3-4.2-0.9l-0.2-0.1l0-0.2c-0.9-22.4-24.2-40.3-52.9-40.6l-0.3,0V41l0.3,0c22.8,0.3,39.9,6.6,50.7,18.6
		c9,9.9,11.8,21.8,12.7,30l0,0.2l-0.2,0.1C199.3,90.3,197,91.3,194.3,91.3L194.3,91.3z M78,91.3c-2.7,0-5-1-5.9-1.4l-0.2-0.1l0-0.2
		c0.8-8.2,3.7-20.1,12.7-30c10.9-12,27.9-18.3,50.7-18.6l0.3,0v8.5l-0.3,0c-28.7,0.4-52,18.2-52.9,40.6l0,0.2l-0.2,0.1
		C81,91,79.5,91.3,78,91.3 M200.9,81.3c-0.2,0-0.5,0-0.7,0l-0.2,0l0-0.2c-2.1-8.6-6-16.1-11.4-22.2c-11.1-12.3-28.4-18.6-51.5-19
		l-0.3,0v-6.7l0.3,0c1.2,0,2.4,0,3.5,0c28.8,0,49.3,9,61,26.6c3.2,4.9,5.8,10.6,7.5,16.8l0,0.1l-0.1,0.1
		C208.1,78.2,205.8,81.3,200.9,81.3L200.9,81.3z M71.4,81.3c-4.9,0-7.2-3.1-8-4.5l-0.1-0.1l0-0.1c1.7-6.2,4.2-11.9,7.5-16.8
		c11.7-17.7,32.2-26.6,61-26.6c1.2,0,2.3,0,3.5,0l0.3,0V40l-0.3,0c-23.1,0.3-40.4,6.7-51.5,19c-5.5,6.1-9.3,13.5-11.4,22.2l0,0.2
		l-0.2,0C71.9,81.3,71.7,81.3,71.4,81.3"/>
	<path clip-path="url(#SVGID_4_)" fill="#B22025" d="M115,42.1c-0.5-2.7-1.6-5.1-3-7.3c5.4-1,11.3-1.5,17.5-1.6
		c0.5,2.5-0.3,5.7-2.4,7.1C122.8,40.7,118.8,41.3,115,42.1 M93.8,117.8L93.8,117.8c-2-2-3.8-4.1-5.3-6.2l-0.1-0.2l-0.2,0.1
		c-0.3,0.1-0.9,0.3-1.6,0.6c0.6,2.7,1.7,6,3.5,9.4c2,0.6,3.9,1.9,5.3,3.6l0.5-0.3C94.4,121.3,93.9,118.6,93.8,117.8L93.8,117.8z
		 M128.2,41.3c-4.6,0.3-9,0.9-13.1,1.8c0.1,0.9,0.2,1.9,0.2,2.9c0,2.5-0.5,5-1.3,7.2c5.7-2,11.9-3.2,18.4-3.5
		C134.4,46.1,131.4,42.4,128.2,41.3 M83.4,59.1c-2.2-2.5-3.9-5.6-4.6-9c-3.1,2.9-5.9,6.1-8.2,9.7c-1.3,1.9-2.4,3.9-3.4,6
		c3.7,1.2,8,1.7,10.2,1.9C79,64.7,81,61.8,83.4,59.1 M94.2,65c-4.7,4.5-8.2,9.8-10.2,15.6c-4.1-0.6-9.6-6-5.3-12.7c0,0-0.1,0-0.3,0
		c1.5-2.7,3.4-5.4,5.7-8C86.8,62.6,90.3,64.4,94.2,65 M81,64.2c0,0.1-0.1,0.2-0.2,0.3C80.9,64.4,81,64.3,81,64.2 M157.4,43.2
		c-4.2-0.9-8.8-1.6-13.6-1.9c-3.2,1.1-6.3,4.8-4.2,8.3c6.8,0.3,13.2,1.6,19,3.7c-0.9-2.3-1.4-4.8-1.4-7.4
		C157.1,45,157.2,44.1,157.4,43.2 M193.3,67.9c4.3,6.7-1.2,12.1-5.3,12.7c-2-5.8-5.5-11-10.2-15.5c3.9-0.5,7.5-2.3,10.3-4.9
		c2.2,2.5,4,5.1,5.5,7.7C193.4,67.9,193.3,67.9,193.3,67.9 M191.1,64.5c-0.1-0.1-0.1-0.2-0.2-0.3C191,64.3,191,64.4,191.1,64.5
		 M193.6,50.5c-0.8,3.4-2.5,6.5-4.8,8.9c2.2,2.5,4.2,5.3,5.9,8.3c2.1-0.2,6.4-0.7,10.2-1.9c-1-2.1-2.2-4.1-3.4-6
		C199.2,56.4,196.5,53.3,193.6,50.5 M183.5,111.4l-0.1,0.2c-1.5,2.2-3.3,4.3-5.3,6.2l-0.1,0.1l0,0.1c-0.1,0.7-0.6,3.4-2,6.8l0.5,0.3
		c1.4-1.7,3.2-2.9,5.3-3.6c1.8-3.4,2.9-6.8,3.5-9.4c-0.7-0.3-1.2-0.5-1.6-0.6L183.5,111.4z M144.9,40.3c4.5,0.4,8.7,1,12.6,1.9
		c0.5-2.7,1.6-5.1,3-7.3c-5.6-1-11.6-1.6-18-1.7C142,35.7,142.8,38.9,144.9,40.3 M219.9,193.1l0.1,0.2l0.2-0.1
		c2.7-0.7,5-1.6,7.2-2.7c-3.2-9.2-7.3-19.1-6.2-32.8c0.6-6.6,2.3-11.9,4.4-15.8c-5.4,2.8-13.7,9.8-12.2,26.8
		C214.3,179.8,217,186.6,219.9,193.1 M43.3,189.6c2.5,1.5,5.4,2.8,8.8,3.6l0.2,0.1l0.1-0.2c2.9-6.5,5.6-13.2,6.5-24.3
		c1.5-17.6-7.4-24.5-12.8-27.1c-1-0.5-2.3-1-3.8-1.4C44.7,148,48.5,165.9,43.3,189.6 M45.3,228.6l0-0.3l-0.3,0c-2.5,0-4.9-0.4-7-0.9
		c0.6,5.2,2.2,9.8,4.7,16.3c3.8,10,7.6,17.2,11.7,23.4c1.4,0.1,2.7,0.2,4.1,0.2c0.8,0,1.5,0,2.2-0.1l0.5,0l-0.3-0.4
		C47.6,249.7,45.6,236.8,45.3,228.6 M227.3,228.4l-0.3,0l0,0.3c-0.4,8.2-2.4,21.1-15.7,38.1l-0.3,0.4l0.5,0c0.7,0.1,1.5,0.1,2.2,0.1
		h0c0.2,0,0.4,0,0.5,0c2.7-4.1,5.8-9.3,9.3-15.9c4.5-8.5,6.9-16.3,8.1-23.4C230.3,228.2,228.8,228.4,227.3,228.4"/>
	<path clip-path="url(#SVGID_4_)" fill="#E85B60" d="M47,259.4c1.7,3.5-3.2,3.8-5,2.3c-1.8-1.5-12.2-20.5-13.2-34.8
		c-0.1-1.8,5,0.8,6,3.2C35.8,232.4,45.3,255.9,47,259.4 M83.1,116c-2.5-0.5-8.9,2.3-11.8,6c-3,3.8-2.2,6.8,3.3,2
		S85.6,116.5,83.1,116 M234.6,178.4c5.3-3.8-1.2-13.2-0.7-21.8s2.8-15.2-2.2-12.2c-4.2,2.5-8.8,10.5-6.3,22.7
		C228,179.2,229.3,182.2,234.6,178.4 M34,177.4c0.8,1.7,5.5,5.7,6,5.7s3-13.2,3-25.8s-5.4-15-8-13.7c-2.2,1.2-0.7,4.3,2,13
		C39.6,165.2,33.1,175.7,34,177.4 M187.9,116.2c-2.5,0.5,3,3.2,8.5,8s6.3,1.8,3.3-2C196.8,118.5,190.4,115.7,187.9,116.2
		 M242.3,226.7c-1.8,0.8-6.9,0.8-8.2,3c-1.2,2-2,8.3-4.8,16c-2.8,7.7-9.2,17.7-6.7,17.8s8-3,11.7-9.5S244.1,225.9,242.3,226.7
		 M107.3,47.4c-4,0.8-13.1,5.4-15,8c-6.3,8.7,5.9,0.7,13.8-3.1C113.9,48.4,111.3,46.5,107.3,47.4 M100.8,40.3
		C94,41.6,88,44.4,86.1,47.7c-4,6.9,6.3,0.9,15.8-4C111.5,38.8,107.7,38.9,100.8,40.3"/>
	<path clip-path="url(#SVGID_4_)" fill="#0277B4" d="M136.1,399.6c-4.6-0.2-10.2-0.6-12.5-1.1l-0.3-0.1l0.1-0.3
		c0.5-2.6,1.3-8.6,1.7-12H125l0.1-0.4c2.6-6.7,8.7-41.6,7.7-53.3l0-0.4l0.4,0.1c0.9,0.2,1.8,0.3,2.6,0.3h0c0.1,0,0.2,0,0.2,0
		c0.1,0,0.2,0,0.3,0h0c0.8,0,1.7-0.1,2.6-0.3l0.4-0.1l0,0.4c-1,11.7,5.1,46.6,7.7,53.3l0.2,0.4h-0.1c0.7,5.9,1.3,10.1,1.7,12
		l0.1,0.3l-0.3,0.1C146.4,399,140.7,399.4,136.1,399.6L136.1,399.6L136.1,399.6z M148.1,385.6c-1.9-4.2-8.9-42.6-7.7-53.6l0-0.2
		l0.2-0.1c3.1-0.9,6.3-2.9,10.3-5.4l0.5-0.3l0,0.6c-1,18.2,7.4,44.7,7.5,45l0.1,0.2l0,0l3.8,9.3l-0.3,0.1c-5.4,1.9-12.1,4.1-14,4.6
		l-0.2,0.1L148.1,385.6z M123.9,385.8c-1.9-0.5-8.6-2.7-14-4.6l-0.3-0.1l3.8-9.3l0,0l0.1-0.2c0.1-0.3,8.4-26.8,7.5-45l0-0.6l0.5,0.3
		c4,2.6,7.2,4.5,10.3,5.4l0.2,0.1l0,0.2c1.3,11-5.7,49.4-7.7,53.6l-0.1,0.2L123.9,385.8z M159.6,370.6c-1.4-4.7-8.4-28.7-7.1-45.1
		l0-0.1l0.1-0.1c0.8-0.5,1.7-1.1,2.5-1.7l0.9-0.6c2.9-2,5.9-4.2,8.8-6.6l0.6-0.5l-0.1,0.7c-1.2,8.4-4.4,36.7,5.6,50.7l0.2,0.3
		l-0.4,0.1c-1.8,0.6-6.3,1.9-10.8,3l-0.3,0.1L159.6,370.6z M112.4,370.8c-4.6-1.2-9-2.4-10.8-3l-0.4-0.1l0.2-0.3
		c10-14,6.8-42.3,5.6-50.7l-0.1-0.7l0.6,0.5c3,2.5,5.9,4.6,8.8,6.6c1.2,0.8,2.4,1.6,3.5,2.3l0.1,0.1l0,0.1
		c1.3,16.9-6.2,42.3-7.1,45.1l-0.1,0.3L112.4,370.8z M135.9,331.4c-5.4,0-10.3-3.3-19.1-9.3c-9.8-6.7-19.6-15.5-31.7-28.8
		c-1.8-4.2-2.1-8.7-0.7-13c1.5-4.6,4.7-8.3,9-10.5c2-1,4.2-1.5,6.4-1.5c1.5,0,3.1,0.2,4.5,0.7c3.7,1.2,6.6,3.8,8.3,7.2
		c1.4,2.7,1.6,5.8,0.6,8.7c-1,2.9-3,5.2-5.7,6.6c-1.3,0.6-2.6,1-4,1c-3.4,0-6.5-1.9-8.1-5c-0.9-1.7-1-3.6-0.4-5.4
		c0.6-1.8,1.9-3.3,3.6-4.1c0.8-0.4,1.6-0.6,2.5-0.6c0.6,0,1.2,0.1,1.8,0.3c1.4,0.5,2.6,1.5,3.2,2.8c0.1,0.2,0.3,0.3,0.5,0.3
		c0.1,0,0.1,0,0.2-0.1c0.3-0.1,0.4-0.4,0.2-0.7c-0.8-1.6-2.1-2.8-3.8-3.3c-0.7-0.2-1.4-0.3-2.1-0.3c-1,0-2,0.2-3,0.7
		c-1.9,1-3.4,2.6-4.1,4.7c-0.7,2.1-0.5,4.3,0.5,6.2c1.7,3.4,5.2,5.5,9,5.5c1.6,0,3.1-0.4,4.5-1.1c3-1.5,5.2-4,6.2-7.2
		c1-3.1,0.8-6.5-0.7-9.5c-1.8-3.7-5-6.4-8.9-7.7c-1.6-0.5-3.2-0.8-4.9-0.8c-2.4,0-4.7,0.6-6.9,1.6c-4.6,2.3-7.9,6.2-9.5,11.1
		c-1.1,3.3-1.2,6.8-0.4,10.2l-0.5,0.3c-6.1-6.8-12.4-14.2-17.8-20.6c-19.1-22.7-18.6-38.7-18.4-48.2l0-1.6
		c0.3-11.7,3.2-18.2,6.4-25.1c3.1-6.7,6.2-13.7,7.3-26c1.5-17.5-7.1-24.8-12.4-27.6l-0.3-0.2l0.3-0.3c2.2-2.1,7.9-7,14.1-7
		c0.7,0,1.5,0.1,2.1,0.2l0.3,0.1l0,0.3c-0.5,5,0.2,10.7,2.1,17.4c4.5,16,19.1,41.8,27.2,45.3c0.1,0,0.1,0,0.2,0c0.1,0,0.2,0,0.2-0.1
		c0.1-0.1,0.2-0.2,0.2-0.4l1.1-12.9l16.6,21.5c0.1,0.1,0.2,0.2,0.4,0.2c0.3,0,0.4-0.1,0.5-0.3l6-15.4l0.2,0.7c2.3,7,10.5,30,17.3,30
		l0.1,0.3l0-0.3c6.8-0.1,15-23,17.3-30l0.2-0.7l6,15.4c0.1,0.2,0.2,0.3,0.4,0.3h0c0.2,0,0.3-0.1,0.4-0.2l16.6-21.5l1.1,12.9
		c0,0.2,0.1,0.3,0.3,0.4c0.1,0,0.2,0.1,0.2,0.1c0.1,0,0.1,0,0.2,0c8.1-3.5,22.7-29.4,27.2-45.3c1.9-6.7,2.6-12.4,2.1-17.4l0-0.3
		l0.3-0.1c0.7-0.1,1.4-0.2,2.1-0.2c6.2,0,11.9,4.9,14.1,7l0.3,0.3l-0.3,0.2c-5.3,2.8-13.9,10.1-12.4,27.6c1,12.3,4.2,19.3,7.3,26
		c3.1,6.9,6.1,13.5,6.4,25.2l0.1,1.6c0.3,9.6,0.7,25.6-18.4,48.2c-5.7,6.8-11.9,14-17.8,20.6l-0.5-0.3c0.8-3.4,0.6-6.9-0.4-10.2
		c-1.6-4.9-4.9-8.8-9.5-11.1c-2.2-1.1-4.5-1.6-6.9-1.6c-1.6,0-3.3,0.3-4.9,0.8c-3.9,1.3-7.1,4-8.9,7.7c-1.5,3-1.7,6.3-0.7,9.5
		c1,3.1,3.2,5.7,6.2,7.2c1.4,0.7,2.9,1.1,4.5,1.1c3.8,0,7.3-2.1,9-5.5c1-1.9,1.1-4.1,0.5-6.2c-0.7-2.1-2.1-3.7-4.1-4.7
		c-0.9-0.5-1.9-0.7-3-0.7c-0.7,0-1.4,0.1-2.1,0.3c-1.7,0.5-3,1.7-3.8,3.3c-0.1,0.2,0,0.6,0.2,0.7c0.1,0,0.1,0,0.2,0
		c0.2,0,0.4-0.1,0.5-0.3c0.7-1.3,1.8-2.3,3.2-2.8c0.6-0.2,1.2-0.3,1.8-0.3c0.9,0,1.7,0.2,2.5,0.6c1.7,0.8,3,2.3,3.6,4.1
		c0.6,1.8,0.5,3.7-0.4,5.4c-1.5,3.1-4.6,5-8.1,5c-1.4,0-2.8-0.3-4-1c-2.7-1.4-4.7-3.7-5.7-6.6c-1-2.9-0.7-6,0.6-8.7
		c1.7-3.4,4.7-6,8.3-7.2c1.5-0.5,3-0.7,4.5-0.7c2.2,0,4.4,0.5,6.4,1.5c4.3,2.2,7.5,5.9,9,10.5c1.4,4.3,1.1,8.8-0.7,12.9
		c-12.2,13.3-21.9,22.2-31.8,28.8c-8.8,6-13.7,9.3-19.1,9.3H135.9z M175.9,306.5c3.4-3.3,6.9-6.9,10.6-10.9l0.1-0.1l0.1,0
		c17-3.3,26.9-9.8,44.1-29.2c8.7-9.8,15.1-26.9,17.6-47c2.3-18.7,0.5-35.9-4.5-44.9c-10.4-18.5-1.8-30.4,0.1-32.6l0.1-0.2l0.2,0.1
		c4.6,2.3,8.8,6.4,12.4,12.2c18.2,29.3,19,58.9,2.3,90.4c-18,34.1-45.1,54.6-82.9,62.7l-1,0.2L175.9,306.5z M96.2,307
		c-37.8-8.2-64.9-28.7-82.9-62.7c-16.7-31.5-15.9-61.1,2.3-90.4c3.7-5.9,7.8-10,12.4-12.2l0.2-0.1l0.1,0.2
		c1.8,2.2,10.5,14.1,0.1,32.6c-5.1,9-6.8,26.2-4.5,44.9c2.4,20.1,8.8,37.2,17.6,47c17.2,19.4,27.1,25.9,44.1,29.2l0.1,0l0.1,0.1
		c3.8,4.1,7.3,7.7,10.6,10.9l0.7,0.7L96.2,307z M136.1,149c-14.6-1.2-26.2-6.5-33.5-15.6c-4.3-5.4-6.2-10.8-6.9-13.6l-0.2-0.9
		l0.7,0.6c10.2,8.9,24.8,14,40,14c15.2,0,29.8-5.1,40-14l0.7-0.6l-0.2,0.9c-0.7,2.8-2.6,8.2-6.9,13.6
		C162.4,142.4,150.8,147.8,136.1,149L136.1,149L136.1,149z"/>
	<path clip-path="url(#SVGID_4_)" fill="#005C8A" d="M153.8,189.7l4.9,12.5c-3.1-2.1-5,3.7-9.8,10.5c-3.2,4.6-6.7,7.1-10.5,7
		c6.3-4,13-23,15.2-29.3L153.8,189.7z M176.8,287.5c0.8-1.7,1-3.5,0.4-5.3c-1.8,3.3-3.8,6.6-5.8,9.9
		C173.7,291.4,175.7,289.8,176.8,287.5 M131.9,332l0-0.2l-0.2-0.1c-3.1-0.9-6.3-2.9-10.3-5.4l-0.5-0.3l0,0.6c0.2,3.4,0,7.1-0.3,10.9
		c2.2-0.9,8.9-3.5,11.4,0.3C132,335.5,132,333.5,131.9,332 M131.1,217c-5.4-6.7-10.5-21.2-12.3-26.6l-0.2-0.7l-6,15.4
		c-0.1,0.2-0.2,0.3-0.5,0.3c-0.1,0-0.1,0-0.2,0c0.1,0.1,0.1,0.2,0.2,0.3c1.6,3,6.6-6.8,6.6-6.8S124.4,212.2,131.1,217 M136.2,331.4
		c-3.8-0.7-8.8-2.7-13.2-5.2c5.3,3.4,9,5.2,13,5.2H136.2z M181.1,195.8c4.3,0.9,14.5,3.6,15.7,25.4c0.7,11.7-4.6,30.6-13.9,50
		c2.8,2.3,4.9,5.3,6,8.8c1.1,3.3,1.2,6.8,0.4,10.2l0.5,0.3c5.9-6.6,12.1-13.8,17.8-20.6c19.1-22.7,18.6-38.7,18.4-48.2l0-1.6
		c-0.3-11.7-3.2-18.2-6.4-25.2c-3.1-6.7-6.2-13.7-7.3-26c-1.5-17.5,7.1-24.8,12.4-27.6l0.3-0.2l-0.3-0.3c-2.2-2.1-7.9-7-14.1-7
		c-0.7,0-1.5,0.1-2.1,0.2l-0.3,0.1l0,0.3c0.5,5-0.2,10.7-2.1,17.4C202.1,166.4,189.4,189.5,181.1,195.8 M160.8,205
		c1.1,2.3,0.6,3.5,5.1-1.5c4.9-5.5,9.7-8.2,12.3-8.3l-1-11.4L160.8,205z M266.4,174c1.3,25-10.2,36.3-17.5,39.5
		c-0.2,1.9-0.3,3.8-0.6,5.8c-2.4,20.1-8.8,37.2-17.6,47c-17.2,19.4-27.1,25.9-44.1,29.2l-0.1,0l-0.1,0.1c-3.8,4.1-7.3,7.7-10.6,10.9
		l-0.7,0.7l1-0.2c37.8-8.2,64.9-28.7,82.9-62.7C271.9,219.9,274.3,196.8,266.4,174 M97.1,307.2c-0.1-0.1-0.1-0.2-0.2-0.2l-0.5-0.5
		c-3.4-3.3-6.9-6.9-10.6-10.9l-0.1-0.1l-0.1,0c-17-3.3-26.9-9.8-44.1-29.2c-6.3-7.1-11.4-18-14.6-31c-6.5,1.4-14.5-3.1-21.2-8.6
		c1.9,5.8,4.4,11.7,7.6,17.6c18,34.1,45.1,54.6,82.9,62.7L97.1,307.2z M118.8,131.3c6.2,4.5,12.5,8.5,17.1,10.2
		c5.3,1.9,8,4.2,9.1,6.2c10.5-2.3,18.9-7.1,24.7-14.3c4.3-5.4,6.2-10.8,6.9-13.6l0.2-0.9l-0.7,0.6c-10.2,8.9-24.8,14-40,14
		C130.2,133.6,124.3,132.8,118.8,131.3 M165.4,315.9l-0.6,0.5c-2.9,2.4-5.9,4.6-8.8,6.6l-0.9,0.6c-0.9,0.6-1.7,1.2-2.5,1.7l-0.1,0.1
		l0,0.1c-0.2,3-0.2,6.3,0.1,9.7c1.3-1.6,6.3-6.8,11.6-6.4c0.3-5.3,0.9-9.6,1.2-12.2L165.4,315.9z M112.6,370.8l0.1-0.3
		c0.4-1.3,2.1-7.1,3.8-14.7l-0.1-0.2c-3,6.1-8.8,0.1-9.7-1.4c-1.1,4.9-2.8,9.4-5.3,13l-0.2,0.3l0.4,0.1c1.8,0.6,6.3,1.9,10.8,3
		L112.6,370.8z M119.9,332.4c0.1-2.4,0.1-4.7-0.1-6.9l0-0.1l-0.1-0.1c-1.1-0.7-2.2-1.5-3.5-2.3c-2.8-1.9-5.6-4-8.6-6.4
		c-0.3-0.2-0.5-0.3-0.8-0.5l0.1,0.5c0.4,2.7,1,7.4,1.3,13C110.3,328.9,118,326.5,119.9,332.4 M123.9,385.8l0.2,0.1l0.1-0.2
		c0.7-1.4,1.9-6.7,3.2-13.5c-7.7,7.7-11.7-3.6-12.4-5.9c-0.9,3.3-1.5,5.3-1.6,5.4l-0.1,0.2l0,0l-3.8,9.3l0.3,0.1
		C115.3,383,122,385.3,123.9,385.8 M167.1,359.8c-2.5,3.1-8,1.5-10.3,0.6c1.2,4.9,2.3,8.6,2.8,10.2l0.1,0.3l0.3-0.1
		c4.6-1.2,9-2.4,10.8-3l0.4-0.1l-0.2-0.3C169.3,365.1,168.1,362.6,167.1,359.8 M162.7,381.1l-3.8-9.3l0,0l-0.1-0.2
		c0,0-0.3-1-0.8-2.5c-0.9,7.1-10.3,3.7-13.3,2.4c1.3,7.1,2.6,12.7,3.3,14.1l0.1,0.2l0.2-0.1c1.9-0.5,8.6-2.7,14-4.6L162.7,381.1z
		 M147.1,386.2h0.1l-0.2-0.4c-0.7-1.7-1.6-5.4-2.6-10.1c-4.3,11-14.8,3.7-17.1,1.6c-0.9,3.9-1.6,7-2.3,8.5l-0.1,0.4h0.1
		c-0.4,3.4-1.2,9.4-1.7,12l-0.1,0.3l0.3,0.1c2.2,0.5,7.9,0.9,12.5,1.1h0h0c4.6-0.2,10.2-0.6,12.5-1.1l0.3-0.1l-0.1-0.3
		C148.5,396.3,147.9,392,147.1,386.2 M139.4,339.2c-0.1-2.7-0.2-5,0-6.8l0-0.4l-0.4,0.1c-0.9,0.2-1.8,0.3-2.6,0.3h0
		c-0.1,0-0.2,0-0.3,0c-0.1,0-0.2,0-0.2,0h0c-0.8,0-1.7-0.1-2.6-0.3l-0.4-0.1l0,0.4c0.2,1.8,0.1,4.1,0,6.9
		C134,338.9,137.8,337.3,139.4,339.2 M116.5,355.4c-0.1,0.2-0.1,0.3-0.1,0.3C116.4,355.6,116.5,355.5,116.5,355.4 M151.5,334.5
		c-0.2-2.7-0.2-5.4-0.1-7.9l0-0.6l-0.5,0.3c-4,2.6-7.2,4.5-10.3,5.4l-0.2,0.1l0,0.2c-0.2,1.8-0.2,4.3,0,7.3
		C142.4,337.3,148.8,331.6,151.5,334.5 M96,197.4c1.3,0.7,2.3-3.5,2.7-4.2c0.2-0.4,3.6,1.3,7.2,4.6l-10.8-14.1l-1.1,12
		C94.8,196.5,95.6,197.2,96,197.4 M187.3,293.2c1.8-4.1,2-8.7,0.7-12.9c-1-3.2-2.9-6-5.5-8.2c-1.4,3-3,5.9-4.6,8.9
		c0.1,0.2,0.2,0.5,0.3,0.7c0.7,2.1,0.5,4.3-0.5,6.2c-1.4,2.8-4,4.7-7,5.3c-9.6,15.1-21.3,29-34,38.1c5.3-0.1,10.2-3.4,18.8-9.3
		C165.3,315.4,175.1,306.6,187.3,293.2"/>
	<path clip-path="url(#SVGID_4_)" fill="#2D93D1" d="M125.3,365c-3.9,8.8-5.6,0.8-5.5-7.8s2.9-14.8,5.1-15.9
		C130.5,338.6,129.1,356.2,125.3,365 M110.1,339.3c-0.3,7.3-1.8,16.5,2,14.1s6.4-12.5,4.8-17.1S110.4,333.6,110.1,339.3
		 M135.6,347.1c-1.7,1.5-6.8,19-3,25.8s7.1,1.9,6.2-10.8S137.9,345.1,135.6,347.1 M16.8,157.2C5,177.2,3.6,204.9,6.3,214
		s14.3,9.7,13.5-5c-1.4-26.1,6.7-40,10.2-48.8C33.5,151.4,20.4,151.1,16.8,157.2 M159.8,221c-19.3,15.7-22,24.3-31.3,10
		c-9.3-14.3-25.3-20.7-30-16.7c-4.7,4-7.7,3-21-15.3c-13.3-18.3-22-3.3-15.3,31.7c6.7,35,39.2,64.9,58.3,79
		c27,20,13.7,8.3,39.4-33.4S179.1,205.4,159.8,221 M145.5,342.1c-1.6,2.3-2.5,15.4,1.9,22.8s8.2-1,5.9-10.4S147.4,339.3,145.5,342.1
		 M156,337.7c-1,1.6-0.5,16.2,3,19.8s4.1-10.1,2.2-17.1S157.5,335.3,156,337.7 M116.1,140.2c8.3,4.3,4.5-2,0.5-4.8
		c-4-2.8-5.3-4.5-7.7-4C105,132.2,107.8,135.9,116.1,140.2 M257.8,164.7c-4.2-11.2-8.5-14.7-12.7-12.5c-3.8,2,1,12,5.5,24.5
		s5,21,6.8,15.8S262,175.9,257.8,164.7"/>
	<path clip-path="url(#SVGID_4_)" fill="#FFFFFF" d="M136.2,219.5c-5.7-0.1-13.7-20.6-17.1-31.4c-0.1-0.2-0.2-0.3-0.5-0.4
		c-0.2,0-0.4,0.1-0.5,0.3l-6.2,15.9l-16.8-21.8c-0.1-0.1-0.2-0.2-0.4-0.2c0,0-0.1,0-0.1,0c-0.2,0.1-0.3,0.2-0.4,0.4L93,195.8
		l-0.4-0.2c-8.1-5.1-21.5-29.6-25.6-44.2c-0.6-2-1-4-1.4-6l0-0.1l0.1-0.1c0-0.1,0.1-0.2,0-0.3c-1-6.9,10.7-19.4,17.5-22.3
		c1.3-0.5,2.6-0.8,3.9-0.8c4.2,0,8,2.5,9.6,6.4c1.7,4.2-0.3,8.9-4.4,10.6c-0.8,0.3-1.6,0.5-2.4,0.5c-2.6,0-5-1.6-5.9-4
		c-1.1-2.6,0.2-5.5,2.7-6.6c0.5-0.2,1-0.3,1.5-0.3c0.5,0,1,0.1,1.5,0.3c1,0.4,1.7,1.2,2.1,2.1c0.3,0.8,0.3,1.6,0,2.3
		c-0.3,0.7-0.9,1.3-1.6,1.6c-0.3,0.1-0.4,0.4-0.3,0.7c0.1,0.2,0.3,0.3,0.5,0.3c0.1,0,0.1,0,0.2,0c1-0.4,1.8-1.2,2.2-2.2
		c0.4-1,0.4-2.1,0-3.1c-0.5-1.2-1.5-2.2-2.7-2.7c-0.6-0.3-1.2-0.4-1.9-0.4c-0.6,0-1.3,0.1-1.9,0.4c-3.1,1.3-4.5,4.8-3.3,7.9
		c1.2,2.8,3.9,4.6,6.9,4.6c1,0,1.9-0.2,2.8-0.6c4.1-1.7,6.4-6.1,5.5-10.4l0.5-0.2c1,1.7,2.1,3.3,3.2,4.7c2.2,2.8,4.9,5.3,8,7.4
		l0.2,0.2l-5.5,7.2l-0.2-0.1c-0.1-0.1-0.2-0.1-0.2-0.1c-0.5-0.2-1.1-0.3-1.7-0.3c-2.1,0-4.1,1.4-4.9,3.5c-0.5,1.3-0.6,2.8-0.1,4.1
		c0.5,1.3,1.4,2.3,2.6,2.8c0.5,0.2,1.1,0.3,1.7,0.3c2.1,0,4.1-1.4,4.9-3.6c0.5-1.3,0.6-2.8,0.1-4.1c-0.3-0.7-0.7-1.3-1.2-1.9
		l-0.2-0.2l5.5-7.2l0.2,0.1c6.6,4.3,14.9,6.8,24.4,7.7l0.3,0v9.9l-0.3,0c-3.2,0.4-5.6,3-5.6,6.3c0,3.5,2.8,6.3,6.3,6.3
		c3.5,0,6.3-2.8,6.3-6.3c0-3.3-2.4-6-5.7-6.3l-0.3,0V150l0.3,0c9.5-0.8,17.8-3.4,24.4-7.7l0.2-0.1l5.5,7.2l-0.2,0.2
		c-0.5,0.5-1,1.1-1.2,1.9c-0.5,1.3-0.4,2.7,0.1,4.1c0.8,2.1,2.8,3.6,4.9,3.6c0.6,0,1.1-0.1,1.7-0.3c1.2-0.5,2.2-1.5,2.6-2.8
		c0.5-1.3,0.4-2.7-0.1-4.1c-0.8-2.1-2.8-3.6-4.9-3.6c-0.6,0-1.1,0.1-1.7,0.3c-0.1,0-0.1,0-0.1,0.1l-0.2,0.1l-0.2-0.2l-5.3-7l0.2-0.2
		c3.1-2.1,5.8-4.6,8-7.4c1.2-1.5,2.2-3,3.2-4.7l0.5,0.2c-1,4.3,1.3,8.7,5.5,10.4c0.9,0.4,1.8,0.6,2.8,0.6c3,0,5.7-1.8,6.9-4.6
		c1.3-3.1-0.2-6.6-3.3-7.9c-0.6-0.2-1.2-0.4-1.9-0.4c-0.7,0-1.3,0.1-1.9,0.4c-1.2,0.5-2.2,1.5-2.7,2.7c-0.4,1-0.4,2.1,0,3.1
		c0.4,1,1.2,1.8,2.2,2.2c0.1,0,0.1,0,0.2,0c0.2,0,0.4-0.1,0.5-0.3c0.1-0.3,0-0.6-0.3-0.7c-0.8-0.3-1.3-0.9-1.6-1.6
		c-0.3-0.7-0.3-1.6,0-2.3c0.4-1,1.2-1.7,2.1-2.1c0.5-0.2,1-0.3,1.5-0.3c0.5,0,1,0.1,1.5,0.3c2.6,1.1,3.8,4,2.7,6.6c-1,2.4-3.3,4-6,4
		c-0.8,0-1.7-0.2-2.4-0.5c-4.2-1.7-6.1-6.5-4.4-10.6c1.6-3.9,5.4-6.4,9.6-6.4c1.3,0,2.7,0.3,3.9,0.8c6.8,2.8,18.5,15.3,17.5,22.2
		c0,0.1,0,0.2,0.1,0.3l0,0.1l0,0.1c-0.4,2-0.9,4-1.4,6c-4.1,14.6-17.6,39.1-25.6,44.2l-0.4,0.2l-1.2-13.4c0-0.2-0.2-0.4-0.4-0.4
		c0,0-0.1,0-0.1,0c-0.2,0-0.3,0.1-0.4,0.2L160.4,204l-6.2-15.9c-0.1-0.2-0.3-0.3-0.5-0.3c-0.2,0-0.4,0.1-0.5,0.4
		C149.8,198.9,141.8,219.4,136.2,219.5L136.2,219.5z M136.1,132.6c-29.1,0-52.7-18.4-52.7-41c0-22.6,23.7-41,52.7-41
		c29.1,0,52.7,18.4,52.7,41C188.9,114.1,165.2,132.5,136.1,132.6L136.1,132.6z M114.7,101.4c3.2,2.2,14.1,9.4,21.5,9.8
		c7.4-0.5,18.3-7.6,21.5-9.8l0.3-0.2l0.1,0.3c0.4,1.1,0.3,2.2,0.2,2.3c0,0.1,0,0.2,0.1,0.3c0.1,0.1,0.2,0.2,0.3,0.2l0.1,0
		c0.2,0,0.4-0.2,0.5-0.4c0,0,0.4-2-0.7-3.6c-0.8-1.1-2-1.7-3.6-1.9h0c-0.3,0-0.5,0.2-0.6,0.4c0,0.1,0,0.3,0.1,0.4
		c0.1,0.1,0.2,0.2,0.3,0.2c0.9,0.1,1.6,0.4,2.2,0.8l0.3,0.2l-0.3,0.2c-1.3,0.9-13.2,9.1-20.8,9.6c-7.6-0.5-19.5-8.7-20.8-9.6
		l-0.3-0.2l0.3-0.2c0.6-0.4,1.3-0.7,2.2-0.8c0.3,0,0.5-0.3,0.4-0.6c0-0.3-0.3-0.4-0.5-0.4c-1.7,0.2-2.9,0.9-3.7,1.9
		c-1.2,1.6-0.7,3.6-0.7,3.6c0.1,0.2,0.3,0.4,0.5,0.4l0.1,0c0.1,0,0.2-0.1,0.3-0.2c0.1-0.1,0.1-0.2,0.1-0.4c0,0-0.2-1.2,0.2-2.3
		l0.1-0.3L114.7,101.4z M144.3,94.6c-0.7,0-1.3,0.9-1.3,1.9c0,1,0.6,1.9,1.3,1.9c0.7,0,1.3-0.9,1.3-1.9
		C145.6,95.4,145,94.6,144.3,94.6 M128,94.6c-0.7,0-1.3,0.9-1.3,1.9c0,1,0.6,1.9,1.3,1.9c0.7,0,1.3-0.9,1.3-1.9
		C129.3,95.4,128.7,94.6,128,94.6 M161,83.9c4.5,0,8.7,2.9,8.7,2.9c0.1,0.1,0.2,0.1,0.3,0.1c0.2,0,0.3-0.1,0.4-0.2
		c0.2-0.2,0.1-0.5-0.1-0.7c-0.5-0.3-4.6-3.1-9.2-3.1c-0.7,0-1.4,0.1-2,0.2l-0.8,0.2l0.5-0.6c2.1-2.5,7.3-8.2,9.3-8.9
		c0.1,0,0.2-0.1,0.3-0.3c0.1-0.1,0.1-0.3,0-0.4c-0.1-0.2-0.3-0.3-0.5-0.3c-0.1,0-0.1,0-0.2,0c-2.9,1-10.5,9.8-11.4,11.3
		c-0.1,0.2-0.1,0.4,0.1,0.6c0.1,0.1,0.2,0.2,0.4,0.2c0.1,0,0.2,0,0.2-0.1C158.3,84.2,159.6,83.9,161,83.9 M111.2,82.8
		c-4.9,0-9.2,3.1-9.2,3.1c-0.1,0.1-0.2,0.2-0.2,0.3c0,0.1,0,0.3,0.1,0.4c0.1,0.1,0.2,0.2,0.4,0.2c0.1,0,0.2,0,0.3-0.1
		c0,0,4.2-2.9,8.7-2.9c1.4,0,2.8,0.3,4,0.9c0.1,0,0.1,0.1,0.2,0.1c0.1,0,0.3-0.1,0.3-0.2c0.2-0.2,0.2-0.4,0.1-0.6
		c-0.9-1.5-8.4-10.3-11.4-11.4c-0.1,0-0.1,0-0.2,0c-0.2,0-0.4,0.1-0.5,0.3c0,0.1,0,0.3,0,0.4c0.1,0.1,0.2,0.2,0.3,0.3
		c2,0.7,7.2,6.4,9.3,8.9l0.5,0.6l-0.8-0.2C112.6,82.9,111.9,82.8,111.2,82.8"/>
	<path clip-path="url(#SVGID_4_)" fill="#D4EEF3" d="M141.3,109.1c4.2-2.2,11.3-6.4,13.6-9.6c0.8,0.1,1.5,0.4,2,0.7l0.3,0.2
		l-0.3,0.2C155.9,101.4,148.2,106.7,141.3,109.1 M206.6,145c1-6.9-10.7-19.4-17.5-22.2c-1.3-0.5-2.6-0.8-3.9-0.8
		c-4.2,0-8,2.5-9.6,6.4c-1.7,4.2,0.3,8.9,4.4,10.6c0.8,0.3,1.6,0.5,2.4,0.5c2.6,0,5-1.6,6-4c1-2.6-0.2-5.5-2.7-6.6
		c-0.5-0.2-1-0.3-1.5-0.3c-0.5,0-1,0.1-1.5,0.3c-1,0.4-1.7,1.2-2.1,2.1c-0.3,0.8-0.3,1.6,0,2.3c0.3,0.7,0.9,1.3,1.6,1.6
		c0.3,0.1,0.4,0.4,0.3,0.7c-0.1,0.2-0.3,0.3-0.5,0.3c-0.1,0-0.1,0-0.2,0c-1-0.4-1.8-1.2-2.2-2.2c-0.4-1-0.4-2.1,0-3.1
		c0.5-1.2,1.4-2.2,2.7-2.7c0.6-0.3,1.2-0.4,1.9-0.4c0.6,0,1.3,0.1,1.9,0.4c3.1,1.3,4.5,4.8,3.3,7.9c-1.2,2.8-3.9,4.6-6.9,4.6
		c-1,0-1.9-0.2-2.8-0.6c-4.1-1.7-6.4-6.1-5.5-10.4l-0.5-0.2c-1,1.7-2.1,3.2-3.2,4.7c-2.2,2.8-4.9,5.3-8,7.4l-0.2,0.2l5.3,7l0.2,0.2
		l0.2-0.1c0,0,0.1,0,0.1-0.1c0.5-0.2,1.1-0.3,1.7-0.3c2.1,0,4.1,1.4,4.9,3.6c0.5,1.4,0.6,2.8,0.1,4.1c-0.5,1.3-1.4,2.3-2.6,2.8
		c-0.5,0.2-1.1,0.3-1.7,0.3c-2.1,0-4.1-1.4-4.9-3.6c-0.5-1.3-0.6-2.8-0.1-4.1c0.3-0.7,0.7-1.3,1.2-1.9l0.2-0.2l-5.5-7.2l-0.2,0.1
		c-6.6,4.3-14.9,6.8-24.4,7.7l-0.3,0v9.9l0.3,0c3.2,0.3,5.7,3,5.7,6.3c0,3.5-2.8,6.3-6.3,6.3c-1.2,0-2.3-0.3-3.3-0.9
		c4.8,16.4,7.8,36,3.8,47.9c5.6-1.2,13.2-20.8,16.5-31.4c0.1-0.2,0.2-0.3,0.5-0.4c0.2,0,0.4,0.1,0.5,0.3l6.2,15.9l16.8-21.8
		c0.1-0.1,0.2-0.2,0.4-0.2c0,0,0.1,0,0.1,0c0.2,0.1,0.3,0.2,0.4,0.4l1.2,13.4l0.4-0.2c8.1-5.1,21.5-29.6,25.6-44.2c0.6-2,1-4,1.4-6
		l0-0.1l0-0.1C206.6,145.2,206.6,145.1,206.6,145 M188.9,91.5c0,21.3-21.1,38.9-47.9,40.8c16.4-7.5,19.9-23.8,14.9-23.2
		c-4.7,0.6-12.8,1.2-16.2,1.4c7-1.9,15.2-7.3,17.9-9.2l0.3-0.2l0.1,0.3c0.4,1.1,0.3,2.2,0.2,2.3c0,0.1,0,0.2,0.1,0.3
		c0.1,0.1,0.2,0.2,0.3,0.2l0.1,0c0.2,0,0.4-0.2,0.5-0.4c0,0,0.4-2-0.7-3.6c-0.7-0.9-1.7-1.5-3.1-1.8c0.3-0.8,0.3-1.5-0.3-2.1
		c-4-4-12-8-3.8-13.8c6.2-4.3,4.5-20.9-0.2-30.5C173,57.3,188.9,73,188.9,91.5 M170.3,86c-0.5-0.3-4.6-3.1-9.2-3.1
		c-0.7,0-1.4,0.1-2,0.2l-0.8,0.2l0.5-0.6c2.1-2.5,7.3-8.2,9.3-8.9c0.1,0,0.2-0.1,0.3-0.3c0.1-0.1,0.1-0.3,0-0.4
		c-0.1-0.2-0.3-0.3-0.5-0.3c-0.1,0-0.1,0-0.2,0c-2.9,1-10.5,9.8-11.4,11.4c-0.1,0.2-0.1,0.4,0.1,0.6c0.1,0.1,0.2,0.2,0.4,0.2
		c0.1,0,0.2,0,0.2-0.1c1.2-0.6,2.5-0.9,4-0.9c4.5,0,8.7,2.9,8.7,2.9c0.1,0.1,0.2,0.1,0.3,0.1c0.2,0,0.3-0.1,0.4-0.2
		C170.6,86.5,170.6,86.1,170.3,86 M135.5,159.9l0.3,0V150l-0.3,0c-4.2-0.4-8.1-1.1-11.8-2.1c2.1,3.8,4.5,9.4,6.7,15.9
		C131.3,161.7,133.2,160.2,135.5,159.9"/>
	<path clip-path="url(#SVGID_4_)" fill="#22205F" d="M271.8,191.6c-1.4-12.8-6-25.4-14.1-38.4c-11.7-18.9-25.7-15.5-31.6-12.9
		c-1.8-1.9-9.5-9.2-17.7-7.6c-0.7-4.6-2.4-8.5-5.2-12c-3.9-4.9-15.4-9.1-18.7-10.3c2.6-4,4.3-8.4,5.2-13.1
		c2.8,0.7,16.8,4.3,20.8,6.5l0.7,0.4l0.4-0.7c1.2-2.5,3.6-25.1-9-44.3c-5.9-8.9-14.1-15.7-24.5-20.3c-6-2.6-12.7-4.5-20-5.6
		l10.3-20.8c0.7,0.2,1.4,0.4,2.2,0.4c3.5,0,6.4-2.9,6.4-6.4c0-3.5-2.9-6.4-6.4-6.4c-3.5,0-6.4,2.9-6.4,6.4c0,2,1,3.8,2.4,5
		l-21.4,12.9l-5.9-12.1c2.2-1,3.7-3.2,3.7-5.8c0-3.5-2.9-6.4-6.4-6.4c-0.1,0-0.2,0-0.4,0s-0.2,0-0.3,0c-3.5,0-6.4,2.9-6.4,6.4
		c0,2.6,1.5,4.8,3.7,5.8l-5.9,12.1l-21.4-12.9c1.5-1.2,2.4-3,2.4-5c0-3.5-2.9-6.4-6.4-6.4c-3.5,0-6.4,2.9-6.4,6.4
		c0,3.5,2.9,6.4,6.4,6.4c0.8,0,1.5-0.1,2.2-0.4l10.3,20.8c-7.4,1.1-14.1,3-20,5.6c-10.4,4.6-18.6,11.4-24.5,20.3
		c-12.6,19.1-10.3,41.8-9,44.3l0.4,0.7l0.7-0.4c4-2.1,18-5.8,20.8-6.5c0.8,4.6,2.6,9,5.2,13.1c-3.4,1.2-14.8,5.5-18.7,10.3
		c-2.8,3.5-4.5,7.4-5.2,12c-8.2-1.6-15.8,5.7-17.7,7.6c-6-2.6-19.9-6-31.6,12.9c-8.1,13-12.7,25.5-14.1,38.4
		c-1.9,17.1,2.1,35,11.7,53.3c18.6,35.1,46.8,56,86.2,63.9c2.3,2.2,4.7,4.3,7,6.3c0.5,3.3,5.8,37.7-5.6,52.3
		c-0.1,0.2-0.2,0.4-0.2,0.6c0,0.2,0.2,0.4,0.3,0.5c1.1,0.7,8.9,2.8,11.9,3.6l-3.7,9.1c-0.1,0.2-0.1,0.4,0,0.6
		c0.1,0.2,0.3,0.4,0.5,0.4c1.3,0.5,12.5,4.3,15.1,4.9c-0.4,3-1.2,9.8-1.7,11.5c-0.1,0.4,0.1,0.8,0.5,0.9c1.4,0.6,7.5,1.1,13.6,1.3
		c6.1-0.3,12.2-0.8,13.6-1.3c0.4-0.2,0.6-0.5,0.5-0.9c-0.5-1.7-1.3-8.6-1.7-11.5c2.6-0.6,13.7-4.5,15.1-4.9c0.2-0.1,0.4-0.2,0.5-0.4
		c0.1-0.2,0.1-0.4,0-0.6l-3.7-9.1c3-0.8,10.8-2.8,11.9-3.6c0.2-0.1,0.3-0.3,0.3-0.5c0-0.2,0-0.4-0.2-0.6
		c-11.4-14.6-6.2-48.9-5.6-52.3c2.3-2,4.7-4.1,7-6.3c39.5-7.9,67.7-28.8,86.2-63.9C269.8,226.6,273.7,208.7,271.8,191.6 M165.7,6.4
		c0-2.7,2.2-4.8,4.8-4.8s4.8,2.2,4.8,4.8c0,2.7-2.2,4.8-4.8,4.8S165.7,9.1,165.7,6.4 M101.8,11.3c-2.7,0-4.8-2.2-4.8-4.8
		c0-2.7,2.2-4.8,4.8-4.8s4.8,2.2,4.8,4.8C106.6,9.1,104.5,11.3,101.8,11.3 M226.3,142c2-1,5.3-2.1,9.2-2.1c2.2,0,4.7,0.4,7.2,1.4
		c-2.5,3.2-10,15.1-0.4,33c-0.9,2.1-6.7,14.9-22.1,18.7c-2.8-6.2-5.6-13-6.5-24.2C212.2,151.3,220.9,144.5,226.3,142 M211.6,267
		c12.7-16.4,15.3-29.1,15.7-38.3c9.1-0.1,16.3-4.6,19.4-6.8c-2.5,17.4-7.9,32.3-15.3,41.7C230,264.1,220.5,267.6,211.6,267
		 M229.4,265.9c-16,17.9-25.6,24.5-40.8,27.9c6.4-7,13-14.8,20.1-23.1c0.6-0.7,1.2-1.5,1.8-2.2c1.1,0.1,2.3,0.2,3.4,0.2
		C220,268.6,226,267,229.4,265.9 M227.3,227.1c0-2,0-3.9-0.1-5.6c0-0.5,0-1.1,0-1.6c-0.3-11.9-3.3-18.6-6.4-25.6
		c14.2-3.7,20.5-14.4,22.4-18.4c4.5,9,6,25.4,3.8,43.1c0,0.2,0,0.3-0.1,0.5C245.6,220.8,237.6,227,227.3,227.1 M202,121.7
		c3.9,4.9,5.6,10.8,5.1,18.3c-2.8-7.6-12.1-16.2-17.5-18.4c-4.8-2-10.2-0.5-13.3,3.3c1.5-3.5,1.9-6.1,2.1-6.9c2-1.9,3.8-4,5.3-6.2
		C186.3,112.7,198.2,117,202,121.7 M65.9,144.9c-1-6.8,10.6-19.2,17.3-21.9c5.1-2.1,11,0.3,13.1,5.5c1.6,4-0.3,8.6-4.3,10.3
		c-3.1,1.3-6.7-0.2-8-3.3c-1-2.4,0.2-5.2,2.6-6.2c0.9-0.4,1.9-0.4,2.8,0c0.9,0.4,1.6,1.1,2,2c0.3,0.7,0.3,1.4,0,2.1
		c-0.3,0.7-0.8,1.2-1.5,1.5c-0.4,0.2-0.6,0.6-0.4,1c0.2,0.4,0.6,0.6,1,0.4c1.1-0.4,1.9-1.3,2.3-2.3c0.5-1.1,0.5-2.2,0-3.3
		c-0.5-1.3-1.5-2.3-2.8-2.8c-1.3-0.5-2.7-0.5-4,0c-3.2,1.3-4.8,5-3.4,8.2c1.6,3.9,6.1,5.8,10.1,4.2c4.3-1.8,6.6-6.3,5.6-10.7
		c0.9,1.5,2,3.1,3.3,4.7c2,2.5,4.6,5.1,8.1,7.5l-5.1,6.8c-0.1,0-0.1-0.1-0.2-0.1c-0.6-0.2-1.2-0.3-1.8-0.3c-2.2,0-4.3,1.5-5.2,3.7
		c-0.6,1.4-0.6,2.9-0.1,4.3c0.5,1.4,1.5,2.4,2.8,3c0.6,0.2,1.2,0.3,1.8,0.3c2.2,0,4.3-1.5,5.2-3.7c0.6-1.4,0.6-2.9,0.1-4.3
		c-0.3-0.8-0.7-1.4-1.3-2l5.1-6.8c5.8,3.7,13.7,6.8,24.5,7.7v9.4c-3.3,0.4-5.9,3.2-5.9,6.5c0,3.6,3,6.6,6.6,6.6c3.6,0,6.6-3,6.6-6.6
		c0-3.4-2.6-6.2-5.9-6.5v-9.4c10.8-0.9,18.7-4,24.5-7.7l5.1,6.8c-0.6,0.5-1,1.2-1.3,2c-0.5,1.4-0.5,2.9,0.1,4.3
		c0.9,2.2,3,3.7,5.2,3.7c0.6,0,1.2-0.1,1.8-0.3c1.3-0.5,2.3-1.6,2.8-3c0.5-1.4,0.5-2.9-0.1-4.3c-0.9-2.2-3-3.7-5.2-3.7
		c-0.6,0-1.2,0.1-1.8,0.3c-0.1,0-0.1,0.1-0.2,0.1l-5.1-6.8c3.5-2.4,6.1-5,8.1-7.5c1.3-1.6,2.4-3.2,3.3-4.7c-1,4.4,1.3,9,5.6,10.7
		c3.9,1.6,8.4-0.3,10.1-4.2c1.3-3.2-0.2-6.9-3.4-8.2c-1.3-0.5-2.7-0.5-4,0c-1.3,0.5-2.3,1.5-2.8,2.8c-0.4,1.1-0.4,2.2,0,3.3
		c0.4,1.1,1.3,1.9,2.3,2.3c0.4,0.2,0.9,0,1-0.4s0-0.9-0.4-1c-0.7-0.3-1.2-0.8-1.5-1.5c-0.3-0.7-0.3-1.4,0-2.1c0.4-0.9,1.1-1.6,2-2
		c0.9-0.4,1.9-0.4,2.8,0c2.4,1,3.6,3.8,2.6,6.2c-1.3,3.1-4.9,4.6-8,3.3c-4-1.6-5.9-6.2-4.3-10.3c2.1-5.1,8-7.6,13.1-5.5
		c6.8,2.8,18.3,15.1,17.3,21.9c0,0.2,0,0.3,0.1,0.5c-0.4,1.9-0.8,3.9-1.4,6c-4.2,14.9-17.7,39.1-25.5,44l-1.1-13
		c0-0.3-0.2-0.6-0.6-0.7c-0.3-0.1-0.6,0-0.8,0.3l-16.5,21.4l-6-15.4c-0.1-0.3-0.4-0.5-0.8-0.5c-0.3,0-0.6,0.2-0.7,0.6
		c-4,12.5-11.7,31.2-16.8,31.2h0h0h0h0c-5.1,0-12.8-18.7-16.8-31.2c-0.1-0.3-0.4-0.5-0.7-0.6c-0.3,0-0.6,0.2-0.8,0.5l-6,15.4
		L95.3,182c-0.2-0.3-0.5-0.4-0.9-0.3c-0.3,0.1-0.5,0.4-0.6,0.7l-1.1,13c-7.9-4.9-21.3-29.1-25.5-44c-0.6-2.1-1-4.1-1.4-6
		C65.9,145.3,66,145.1,65.9,144.9 M136.1,148.7c-14.6-1.2-26-6.5-33.3-15.5c-4.2-5.2-6.1-10.5-6.9-13.4c9.9,8.6,24.2,14,40.2,14.1
		c15.9,0,30.3-5.5,40.2-14.1c-0.8,2.9-2.6,8.2-6.9,13.4C162.2,142.3,150.7,147.6,136.1,148.7 M136.2,161.2c2.8,0,5,2.2,5,5
		c0,2.8-2.2,5-5,5c-2.8,0-5-2.2-5-5C131.2,163.4,133.4,161.2,136.2,161.2 M105.6,151.8c0.4,1,0.3,2.1-0.1,3.2
		c-0.6,1.6-2.1,2.7-3.7,2.7c-0.4,0-0.8-0.1-1.2-0.2c-0.9-0.4-1.6-1.1-1.9-2c-0.4-1-0.3-2.1,0.1-3.1c0.6-1.6,2.1-2.8,3.7-2.8
		c0.4,0,0.8,0.1,1.2,0.2C104.6,150.1,105.3,150.9,105.6,151.8 M166.7,151.8c0.4-1,1-1.7,1.9-2c0.4-0.1,0.8-0.2,1.2-0.2
		c1.6,0,3.1,1.1,3.7,2.8c0.4,1,0.4,2.2,0.1,3.1c-0.4,1-1,1.7-1.9,2c-0.4,0.1-0.8,0.2-1.2,0.2c-1.6,0-3.1-1.1-3.7-2.7
		C166.3,153.9,166.3,152.8,166.7,151.8 M200.3,98.5c-4.6-1.3-9.1-2.5-10.3-2.8c0.2-1.3,0.2-2.6,0.3-3.9c1.4,0.5,2.8,0.7,4.1,0.7
		c2.5,0,4.7-0.7,6-1.3C200.4,94.7,200.3,97.2,200.3,98.5 M136.9,49.2v-8c22.7,0.3,39.7,6.6,50.5,18.5c8.9,9.8,11.8,21.7,12.6,29.8
		c-1.1,0.5-5.6,2.4-9.9,0.5C189.2,67.7,165.8,49.6,136.9,49.2 M210.4,102c-2-0.9-5.2-2-8.6-3c0.1-2,0.4-8.5-1.3-16.4
		c0.1,0,0.2,0,0.4,0c4.3,0,6.9-2.2,8.2-3.9C211.7,89.6,211.1,99,210.4,102 M201.2,60c3.6,5.4,5.9,11.2,7.4,16.7
		c-0.7,1.2-3.1,4.7-8.5,4.3c-1.7-7.1-5.1-15.2-11.5-22.3c-11.1-12.3-28.5-18.7-51.7-19.1v-6.2C167.5,32.8,189.1,41.7,201.2,60
		 M131,6.4c0-2.7,2.2-4.8,4.8-4.8c0.1,0,0.2,0,0.3,0s0.2,0,0.4,0c2.7,0,4.8,2.2,4.8,4.8c0,2.7-2.2,4.8-4.8,4.8c-0.1,0-0.2,0-0.4,0
		c-0.1,0-0.2,0-0.3,0C133.1,11.3,131,9.1,131,6.4 M106.3,13.6l20.8,12.5c0.2,0.1,0.4,0.1,0.6,0.1s0.4-0.2,0.5-0.4l6.4-13
		c0.4,0.1,0.8,0.1,1.2,0.1c0.1,0,0.2,0,0.3,0c0.1,0,0.2,0,0.4,0c0.4,0,0.8,0,1.2-0.1l6.4,13c0.1,0.2,0.3,0.4,0.5,0.4s0.4,0,0.6-0.1
		L166,13.6l-9.6,19.4c-6.3-0.9-13-1.2-20.2-1c-7.2-0.2-14,0.1-20.2,1L106.3,13.6z M71.1,60c12.1-18.3,33.7-27.2,64.3-26.5v6.2
		c-23.2,0.3-40.6,6.7-51.7,19.1c-6.4,7.1-9.8,15.2-11.5,22.3c-5.4,0.3-7.8-3.2-8.5-4.3C65.2,71.2,67.5,65.4,71.1,60 M70.5,99
		c-3.3,1-6.6,2.1-8.6,3c-0.7-2.9-1.3-12.4,1.2-23.2c1.3,1.7,3.9,3.9,8.2,3.9c0.1,0,0.2,0,0.4,0C70.1,90.5,70.3,97,70.5,99 M72,98.5
		c-0.1-1.3-0.2-3.9,0.1-7.2c1.3,0.6,3.5,1.3,6,1.3c1.3,0,2.7-0.2,4.1-0.7c0,1.3,0.1,2.6,0.3,3.9C81.1,96.1,76.7,97.2,72,98.5
		 M82.1,90.1c-4.3,2-8.8,0-9.9-0.5c0.8-8.2,3.7-20,12.6-29.8c10.8-12,27.8-18.2,50.5-18.5v8C106.5,49.6,83.1,67.7,82.1,90.1
		 M83.7,91.5c0-22.5,23.5-40.7,52.5-40.8c28.9,0,52.5,18.3,52.5,40.8c0,22.4-23.5,40.7-52.5,40.7C107.2,132.2,83.7,114,83.7,91.5
		 M70.3,121.7c3.8-4.7,15.8-9,18.4-10c1.5,2.2,3.3,4.3,5.3,6.2c0.1,0.8,0.6,3.4,2.1,6.9c-3.2-3.8-8.5-5.3-13.3-3.3
		c-5.4,2.2-14.7,10.9-17.5,18.4C64.6,132.5,66.3,126.6,70.3,121.7 M36.9,139.9c3.9,0,7.1,1.1,9.2,2.1c5.4,2.5,14.1,9.4,12.6,26.8
		c-0.9,11.2-3.7,18-6.5,24.2c-15.5-3.9-21.3-16.6-22.1-18.7c9.6-17.9,2.2-29.8-0.4-33C32.2,140.2,34.6,139.9,36.9,139.9 M40.9,263.5
		c-7.3-9.4-12.8-24.3-15.3-41.7c3,2.3,10.3,6.8,19.4,6.8c0.4,9.2,3,22,15.7,38.3C51.8,267.6,42.3,264.1,40.9,263.5 M61.9,268.5
		c0.6,0.7,1.2,1.5,1.8,2.2c7,8.3,13.6,16.1,20.1,23.1c-15.2-3.4-24.9-10-40.8-27.9c3.4,1.1,9.4,2.7,15.5,2.7
		C59.6,268.6,60.7,268.6,61.9,268.5 M45,221.5c0,1.7-0.1,3.5-0.1,5.6c-10.3-0.1-18.2-6.3-19.6-7.5c0-0.2,0-0.3-0.1-0.5
		c-2.2-17.8-0.7-34.1,3.8-43.1c1.9,4,8.3,14.8,22.4,18.4c-3.2,7-6.2,13.6-6.4,25.6C45,220.5,45,221,45,221.5 M13.5,244.1
		c-16.6-31.4-15.8-60.9,2.3-90.1c4-6.4,8.2-10.1,12.3-12.1c2,2.3,10.3,14,0.1,32.3c-5.1,9-6.8,26.3-4.5,45.1
		c2.5,20.2,8.9,37.4,17.6,47.2c17.2,19.4,27.2,26,44.2,29.3c3.6,3.9,7.1,7.5,10.7,11C58.6,298.6,31.5,278.1,13.5,244.1 M101.6,367.5
		c10.1-14.2,6.8-42.9,5.6-50.9c2.9,2.4,5.8,4.6,8.8,6.6c1.2,0.8,2.4,1.6,3.5,2.3c1.3,16.4-5.8,40.6-7.1,45
		C108.1,369.4,103.5,368.1,101.6,367.5 M110,380.9l3.7-9.2l0,0c0,0,0,0,0-0.1c0.1-0.3,8.4-26.8,7.5-45.1c4.1,2.7,7.3,4.5,10.4,5.5
		c1.3,11-5.7,49.3-7.6,53.4C122,385,115,382.6,110,380.9 M148.6,398.3c-2,0.4-7.2,0.8-12.4,1.1c-5.2-0.2-10.4-0.6-12.4-1.1
		c0.7-3.3,1.7-12,1.7-12.4h0c2.6-6.7,8.8-41.9,7.8-53.4c0.9,0.2,1.8,0.3,2.7,0.3c0.1,0,0.2,0,0.3,0c0.1,0,0.2,0,0.3,0
		c0.9,0,1.8-0.1,2.7-0.3c-1,11.6,5.1,46.8,7.8,53.4h0C146.9,386.3,147.9,395,148.6,398.3 M162.3,380.9c-5,1.7-12,4.1-14,4.6
		c-1.9-4.2-8.9-42.4-7.6-53.4c3.1-0.9,6.3-2.8,10.4-5.5c-1,18.3,7.4,44.8,7.5,45.1c0,0,0,0,0,0.1l0,0L162.3,380.9z M170.7,367.5
		c-1.9,0.7-6.4,1.9-10.8,3c-1.3-4.4-8.4-28.6-7.1-45c1.1-0.7,2.2-1.5,3.5-2.3c3-2,5.9-4.2,8.8-6.6
		C163.9,324.6,160.5,353.3,170.7,367.5 M155.3,321.9c-8.8,5.9-13.8,9.3-19.2,9.2c-5.4,0.1-10.4-3.3-19.2-9.2
		c-10.8-7.3-21-17-31.7-28.7c-1.8-4-2-8.5-0.7-12.7c1.5-4.5,4.6-8.2,8.8-10.3c3.4-1.7,7.2-2,10.8-0.8c3.6,1.2,6.5,3.7,8.2,7.1
		c1.3,2.7,1.6,5.7,0.6,8.5c-0.9,2.8-2.9,5.1-5.6,6.4c-4.3,2.2-9.6,0.4-11.7-3.9c-0.8-1.6-1-3.5-0.4-5.2c0.6-1.7,1.8-3.1,3.4-4
		c1.3-0.6,2.7-0.8,4.1-0.3c1.4,0.4,2.4,1.4,3.1,2.7c0.2,0.4,0.7,0.5,1,0.3c0.4-0.2,0.6-0.7,0.4-1.1c-0.8-1.6-2.2-2.9-4-3.4
		c-1.7-0.6-3.6-0.4-5.2,0.4c-2,1-3.5,2.7-4.2,4.9c-0.7,2.1-0.5,4.4,0.5,6.4c2.6,5.1,8.8,7.1,13.9,4.6c3-1.5,5.3-4.1,6.4-7.4
		c1.1-3.2,0.8-6.7-0.7-9.7c-1.9-3.7-5.1-6.5-9.1-7.8c-4-1.3-8.2-1-12,0.9c-4.6,2.3-8,6.3-9.6,11.2c-1.1,3.4-1.2,6.9-0.5,10.3
		c-5.7-6.4-11.6-13.2-17.8-20.6c-19-22.6-18.6-38.5-18.3-48c0-0.5,0-1.1,0.1-1.6c0.3-11.6,3.2-18.1,6.3-25
		c3.1-6.8,6.2-13.8,7.3-26.1c1.5-17.3-6.8-24.8-12.6-27.8c2.2-2.2,9.1-8.1,16-6.8c-0.5,5,0.2,10.8,2.1,17.5
		c4.5,16.1,19.2,42,27.4,45.5c0.2,0.1,0.5,0.1,0.7,0c0.2-0.1,0.4-0.4,0.4-0.6l1.1-12.1l16.1,20.9c0.2,0.2,0.5,0.3,0.7,0.3
		c0.3,0,0.5-0.2,0.6-0.5l5.7-14.7c2.5,7.5,10.6,30.2,17.6,30.2h0h0h0h0c6.9-0.1,15.1-22.7,17.6-30.2l5.7,14.7
		c0.1,0.3,0.3,0.4,0.6,0.5c0.3,0,0.6-0.1,0.7-0.3l16.1-20.9l1.1,12.1c0,0.2,0.2,0.5,0.4,0.6c0.2,0.1,0.5,0.1,0.7,0
		c8.2-3.6,22.9-29.5,27.4-45.5c1.9-6.7,2.6-12.5,2.1-17.5c6.9-1.4,13.8,4.6,16,6.8c-5.7,3-14,10.5-12.6,27.8
		c1,12.3,4.2,19.3,7.3,26.1c3.1,6.9,6.1,13.4,6.3,25c0,0.5,0,1,0.1,1.6c0.3,9.5,0.7,25.4-18.3,48c-6.2,7.4-12.1,14.3-17.8,20.6
		c0.8-3.4,0.7-7-0.4-10.3c-1.6-4.9-5-8.9-9.6-11.2c-3.7-1.9-8-2.2-12-0.9c-4,1.3-7.2,4.1-9.1,7.8c-1.5,3-1.8,6.5-0.7,9.7
		c1.1,3.2,3.3,5.8,6.3,7.4c5.1,2.6,11.3,0.5,13.9-4.6c1-2,1.2-4.3,0.5-6.4c-0.7-2.1-2.2-3.9-4.2-4.9c-1.6-0.8-3.5-1-5.2-0.4
		c-1.8,0.6-3.2,1.8-4,3.4c-0.2,0.4,0,0.9,0.3,1.1c0.4,0.2,0.9,0,1.1-0.3c0.6-1.3,1.7-2.2,3.1-2.7c1.3-0.5,2.8-0.3,4,0.3
		c1.6,0.8,2.9,2.2,3.4,4c0.6,1.7,0.4,3.6-0.4,5.2c-2.2,4.3-7.4,6-11.7,3.9c-2.7-1.3-4.6-3.6-5.6-6.4c-0.9-2.8-0.7-5.8,0.6-8.5
		c1.7-3.4,4.6-5.9,8.2-7.1c3.6-1.2,7.4-0.9,10.8,0.8c4.2,2.1,7.4,5.8,8.8,10.3c1.4,4.2,1.1,8.7-0.7,12.7
		C176.3,304.8,166.1,314.5,155.3,321.9 M258.7,244.1c-17.9,34-45,54.5-82.7,62.6c3.5-3.4,7.1-7.1,10.7-11c17-3.3,27-9.9,44.2-29.3
		c8.8-9.8,15.2-27,17.6-47.2c2.3-18.8,0.5-36-4.5-45.1c-10.3-18.3-1.9-30,0.1-32.3c4,2,8.3,5.7,12.3,12.1
		C274.6,183.2,275.3,212.7,258.7,244.1 M156.3,84.8c-0.2-0.2-0.3-0.6-0.1-0.9c0.9-1.5,8.5-10.4,11.5-11.5c0.4-0.1,0.9,0.1,1,0.5
		c0.1,0.4-0.1,0.9-0.5,1c-1.8,0.6-6.7,5.8-9.2,8.8c5.7-1.1,11.2,2.8,11.5,3c0.3,0.2,0.4,0.7,0.2,1.1c-0.2,0.2-0.4,0.3-0.6,0.3
		c-0.2,0-0.3,0-0.5-0.1c-0.1,0-6.8-4.8-12.4-2C156.9,85.2,156.5,85.1,156.3,84.8 M117.3,98.2c0.4,0,0.8,0.2,0.9,0.7
		c0.1,0.4-0.2,0.8-0.7,0.9c-0.8,0.1-1.5,0.4-2,0.7c4.6,3.2,14.4,9.1,20.7,9.5c6.2-0.4,16-6.3,20.7-9.5c-0.5-0.4-1.2-0.6-2-0.7
		c-0.4-0.1-0.7-0.5-0.7-0.9c0.1-0.4,0.5-0.7,0.9-0.7c1.7,0.2,3,0.9,3.8,2.1c1.2,1.7,0.8,3.8,0.8,3.9c-0.1,0.4-0.4,0.6-0.8,0.6
		c-0.1,0-0.1,0-0.2,0c-0.4-0.1-0.7-0.5-0.6-0.9c0,0,0.2-1.1-0.2-2.1c-2.6,1.8-14,9.4-21.7,9.9c-7.7-0.5-19-8-21.7-9.9
		c-0.4,1-0.2,2.1-0.2,2.1c0.1,0.4-0.2,0.8-0.6,0.9c-0.1,0-0.1,0-0.2,0c-0.4,0-0.7-0.2-0.8-0.6c0-0.1-0.4-2.1,0.8-3.9
		C114.3,99.1,115.6,98.4,117.3,98.2 M142.7,96.5c0-1.2,0.7-2.2,1.6-2.2c0.9,0,1.6,1,1.6,2.2c0,1.2-0.7,2.2-1.6,2.2
		C143.4,98.7,142.7,97.7,142.7,96.5 M126.4,96.5c0-1.2,0.7-2.2,1.6-2.2c0.9,0,1.6,1,1.6,2.2c0,1.2-0.7,2.2-1.6,2.2
		C127.1,98.7,126.4,97.7,126.4,96.5 M101.6,86.8c-0.2-0.4-0.2-0.8,0.2-1.1c0.3-0.2,5.8-4.1,11.5-3c-2.5-3-7.4-8.2-9.2-8.8
		c-0.4-0.1-0.6-0.6-0.5-1c0.1-0.4,0.6-0.6,1-0.5c3,1,10.7,10,11.5,11.5c0.2,0.3,0.1,0.7-0.1,0.9c-0.2,0.3-0.6,0.3-0.9,0.2
		c-5.6-2.8-12.3,2-12.4,2c-0.1,0.1-0.3,0.1-0.5,0.1C102,87.2,101.8,87.1,101.6,86.8"/>
</g>
</svg>
