<?xml version="1.0" encoding="utf-8"?>
<!-- Generator: Adobe Illustrator 19.2.1, SVG Export Plug-In . SVG Version: 6.00 Build 0)  -->
<svg version="1.1" id="Layer_1" xmlns="http://www.w3.org/2000/svg" xmlns:xlink="http://www.w3.org/1999/xlink" x="0px" y="0px"
	 viewBox="0 0 100 100" style="enable-background:new 0 0 100 100;" xml:space="preserve">
<style type="text/css">
	.st0{fill:#9AA5AD;}
</style>
<g>
	<rect x="12.7" y="15.6" class="st0" width="74.6" height="4"/>
	<rect x="18.1" y="8.8" class="st0" width="63.8" height="3.7"/>
	<path class="st0" d="M1.4,22.8v68.4h97.2V22.8H1.4z M44.9,80.4c-3.5-0.6-6.8-2.2-9.9-4.7c-2.7-2.1-4.9-4.8-6.5-7.9
		c-1.1-2.3-2-4.8-2.4-7.4c-0.9-5.5,0.2-10.8,3-15.8c0,0,0,0,0,0c2.4-3.9,5.6-7,9.6-9l-1-1.9c-0.4-0.7,0.3-1.5,1.1-1.3l5.2,1.7
		c0.5,0.2,0.7,0.7,0.6,1.1l-1.7,5.2c-0.3,0.8-1.3,0.8-1.7,0.1l-1-1.9c-0.1,0-0.2,0.1-0.2,0.1c-3.3,1.7-6,4.3-7.9,7.6
		c-2.5,4.3-3.3,8.9-2.6,13.5c0.9,5.3,3.5,10,7.5,13.1c0,0,0,0,0,0c2.5,2,5.1,3.3,7.8,3.9c0.2,0,0.4,0.1,0.5,0.1
		c0.9,0.2,1.6,1.1,1.4,2C46.8,80,45.8,80.6,44.9,80.4z M74,59.7c-0.4,3.6-1.7,7.2-3.7,10.3c-2,3.2-4.8,5.8-8.1,7.7
		c-0.4,0.2-0.8,0.5-1.3,0.7l1,1.9c0.4,0.7-0.3,1.5-1.1,1.3l-5.2-1.7c-0.5-0.2-0.7-0.7-0.6-1.1l1.7-5.2c0.3-0.8,1.3-0.8,1.7-0.1
		l1,1.9c0.2-0.1,0.4-0.2,0.5-0.3c0.2-0.1,0.4-0.2,0.5-0.3c2.8-1.6,5.2-3.9,6.9-6.6c1.7-2.6,2.8-5.7,3.2-8.8c0.4-3.2,0-6.4-1.1-9.4
		c-1.2-3.3-3.3-6.3-5.9-8.6c-2.5-2.1-5.4-3.6-8.6-4.4c-0.2,0-0.4-0.1-0.6-0.1c-0.9-0.2-1.5-1.1-1.3-2.1c0.2-0.9,1.1-1.5,2.1-1.3
		c4,0.8,7.6,2.7,10.7,5.3c3.1,2.7,5.5,6.2,6.9,10C74,52.2,74.4,56,74,59.7z"/>
</g>
</svg>
