<?xml version="1.0" encoding="utf-8"?>
<!-- Generator: Adobe Illustrator 16.0.0, SVG Export Plug-In . SVG Version: 6.00 Build 0)  -->
<!DOCTYPE svg PUBLIC "-//W3C//DTD SVG 1.1//EN" "http://www.w3.org/Graphics/SVG/1.1/DTD/svg11.dtd">
<svg version="1.1" id="Layer_1" xmlns="http://www.w3.org/2000/svg" xmlns:xlink="http://www.w3.org/1999/xlink" x="0px" y="0px"
	 width="353px" height="376px" viewBox="0 0 353 376" enable-background="new 0 0 353 376" xml:space="preserve">
<g>
	<defs>
		<rect id="SVGID_1_" width="353" height="376"/>
	</defs>
	<clipPath id="SVGID_2_">
		<use xlink:href="#SVGID_1_"  overflow="visible"/>
	</clipPath>
	<path clip-path="url(#SVGID_2_)" fill="#FFFFFF" d="M130.4,310.7c-0.1,0.1-0.1,0.1-0.2,0.1c-0.5,0.5-1.1,0.9-1.8,1.1l-56.1,23.1
		c0,0,0,0,0,0l-40,16.5c-0.7,0.3-1.5,0.5-2.3,0.5c-1.4,0-2.7-0.5-3.8-1.4c-0.2-0.1-0.3-0.3-0.4-0.4c-1.7-1.7-2.2-4.3-1.3-6.5
		l16.5-40c0,0,0-0.1,0-0.1l23.1-56.1c0.3-0.7,0.7-1.2,1.1-1.8c0-0.1,0.1-0.1,0.1-0.2c0,0,0,0,0,0L278.2,32.8
		c1.2-1.2,2.5-2.3,3.8-3.2V15.2c-2.3,0-4.3-1.3-5.3-3.2H12v352h188v-70c0-3.3,2.7-6,6-6h70V184.5c0-3.3,2.7-6,6-6v-19.5L130.4,310.7
		C130.4,310.7,130.4,310.7,130.4,310.7z"/>
	<polygon clip-path="url(#SVGID_2_)" fill="#98D9D5" points="267.5,300 212,300 212,355.5 	"/>
	<path clip-path="url(#SVGID_2_)" fill="#6DA8D6" d="M261.4,123.1l-24,24c-1.2,1.2-2.7,1.8-4.2,1.8s-3.1-0.6-4.2-1.8
		c-2.3-2.3-2.3-6.1,0-8.5l24-24l-19.8-19.8L80.2,247.8c2.8,1.6,5.3,3.6,7.6,5.9c4.7,4.7,8,10.4,9.6,16.5l108.8-108.8
		c2.3-2.3,6.1-2.3,8.5,0c2.3,2.3,2.3,6.1,0,8.5L105.9,278.6c6,1.6,11.8,4.9,16.5,9.6c2.3,2.3,4.3,4.9,5.9,7.6l152.9-152.9
		L261.4,123.1z"/>
	<polygon clip-path="url(#SVGID_2_)" fill="#274B6D" points="48.6,316.5 41,335 59.5,327.4 	"/>
	<path clip-path="url(#SVGID_2_)" fill="#FFCC75" d="M113.9,296.7c-5.7-5.7-13.4-8.3-20.6-7c-1.9,0.3-3.9-0.3-5.3-1.7
		c-1.4-1.4-2-3.4-1.7-5.3c1.3-7.2-1.4-14.9-7-20.6c-1.9-1.9-4-3.5-6.4-4.7l-19.4,47l17.9,17.9l47-19.4
		C117.3,300.8,115.8,298.6,113.9,296.7z"/>
	
		<rect x="237.9" y="95.2" transform="matrix(0.7071 0.7071 -0.7071 0.7071 153.2533 -161.7668)" clip-path="url(#SVGID_2_)" fill="#F2EBD9" width="68" height="17.8"/>
</g>
<g>
	<defs>
		<rect id="SVGID_3_" y="0" width="353" height="376"/>
	</defs>
	<clipPath id="SVGID_4_">
		<use xlink:href="#SVGID_3_"  overflow="visible"/>
	</clipPath>
	<g clip-path="url(#SVGID_4_)">
		<defs>
			<rect id="SVGID_5_" width="353" height="376"/>
		</defs>
		<clipPath id="SVGID_6_">
			<use xlink:href="#SVGID_5_"  overflow="visible"/>
		</clipPath>
		<path clip-path="url(#SVGID_6_)" fill="#F2484B" d="M339.9,74.8c-0.4-4.1-2.2-8-5.2-10.9l-22.6-22.6c-0.4-0.4-0.9-0.8-1.3-1.2
			c-0.2-0.2-0.4-0.3-0.7-0.5c-0.3-0.2-0.5-0.4-0.8-0.6c-0.3-0.2-0.6-0.4-1-0.6c-0.2-0.1-0.4-0.2-0.5-0.3c-0.5-0.2-0.9-0.5-1.4-0.7
			c-0.1,0-0.1-0.1-0.2-0.1c-2.2-0.9-4.5-1.4-6.9-1.4c-2.4,0-4.7,0.5-6.9,1.4c-0.1,0-0.1,0.1-0.2,0.1c-0.5,0.2-0.9,0.4-1.3,0.6
			c-0.2,0.1-0.4,0.2-0.6,0.3c-0.3,0.2-0.6,0.4-0.9,0.5c-0.3,0.2-0.5,0.4-0.8,0.6c-0.2,0.2-0.4,0.3-0.6,0.5c-0.5,0.4-0.9,0.8-1.3,1.2
			l-24,24l48.1,48.1l24-24c3-3,4.8-6.8,5.2-10.9c0.1-0.6,0.1-1.2,0.1-1.8C340,76,340,75.4,339.9,74.8z"/>
		<path clip-path="url(#SVGID_6_)" fill="#082947" d="M267.5,300L212,355.5V300H267.5z M276,184.5V288h-70c-3.3,0-6,2.7-6,6v70H12
			V12h264.7c1,1.9,3,3.2,5.3,3.2c3.3,0,6-2.7,6-6V6c0-3.3-2.7-6-6-6H6C2.7,0,0,2.7,0,6v364c0,3.3,2.7,6,6,6h200c0.2,0,0.4,0,0.6,0
			c0.1,0,0.3,0,0.4-0.1c0,0,0.1,0,0.1,0c0.2,0,0.3-0.1,0.5-0.1c0,0,0,0,0.1,0c0.2,0,0.3-0.1,0.5-0.2c0,0,0,0,0.1,0
			c0.2-0.1,0.3-0.1,0.4-0.2c0,0,0.1,0,0.1,0c0.1-0.1,0.3-0.1,0.4-0.2c0,0,0.1,0,0.1-0.1c0.1-0.1,0.2-0.2,0.3-0.3
			c0,0,0.1-0.1,0.1-0.1c0.1-0.1,0.3-0.2,0.4-0.4c0,0,0,0,0,0l76-76c0,0,0,0,0,0c0.1-0.1,0.2-0.3,0.4-0.4c0,0,0.1-0.1,0.1-0.1
			c0.1-0.1,0.2-0.2,0.3-0.4c0,0,0-0.1,0.1-0.1c0.1-0.1,0.2-0.3,0.2-0.4c0,0,0-0.1,0-0.1c0.1-0.1,0.1-0.3,0.2-0.5c0,0,0,0,0-0.1
			c0.1-0.2,0.1-0.3,0.2-0.5c0,0,0,0,0-0.1c0-0.2,0.1-0.3,0.1-0.5c0,0,0-0.1,0-0.1c0-0.1,0.1-0.3,0.1-0.4c0-0.2,0-0.4,0-0.6V184.5
			c0-3.3-2.7-6-6-6S276,181.2,276,184.5z"/>
	</g>
</g>
<g>
	<defs>
		<rect id="SVGID_7_" width="353" height="376"/>
	</defs>
	<clipPath id="SVGID_8_">
		<use xlink:href="#SVGID_7_"  overflow="visible"/>
	</clipPath>
	<path clip-path="url(#SVGID_8_)" fill="#082947" d="M289.6,134.4l-48.1-48.1l12.6-12.6l48.1,48.1L289.6,134.4z M71.5,322.4
		l-17.9-17.9l19.4-47c2.3,1.2,4.5,2.8,6.4,4.6c5.7,5.7,8.3,13.4,7,20.6c-0.3,1.9,0.3,3.9,1.7,5.3c1.4,1.4,3.4,2,5.3,1.7
		c7.2-1.3,14.9,1.4,20.6,7c1.9,1.9,3.5,4,4.7,6.4L71.5,322.4z M48.6,316.5l10.8,10.8L41,335L48.6,316.5z M122.3,288.2
		c-4.7-4.7-10.4-8-16.5-9.6l108.8-108.8c2.3-2.3,2.3-6.1,0-8.5c-2.3-2.3-6.1-2.3-8.5,0L97.4,270.1c-1.6-6-4.9-11.8-9.6-16.5
		c-2.3-2.3-4.9-4.3-7.6-5.9L233.1,94.9l19.8,19.8l-24,24c-2.3,2.3-2.3,6.1,0,8.5c1.2,1.2,2.7,1.8,4.2,1.8s3.1-0.6,4.2-1.8l24-24
		l19.8,19.8L128.2,295.9C126.6,293.1,124.6,290.5,122.3,288.2z M334.8,89.3l-24,24l-48.1-48.1l24-24c0.4-0.4,0.9-0.8,1.3-1.2
		c0.2-0.2,0.4-0.3,0.6-0.5c0.3-0.2,0.5-0.4,0.8-0.6c0.3-0.2,0.6-0.4,0.9-0.5c0.2-0.1,0.4-0.2,0.6-0.3c0.4-0.2,0.9-0.4,1.3-0.6
		c0.1,0,0.1-0.1,0.2-0.1c2.2-0.9,4.5-1.3,6.9-1.3c2.4,0,4.7,0.5,6.9,1.3c0.1,0,0.1,0.1,0.2,0.1c0.5,0.2,0.9,0.4,1.4,0.7
		c0.2,0.1,0.4,0.2,0.5,0.3c0.3,0.2,0.7,0.4,1,0.6c0.3,0.2,0.5,0.4,0.8,0.6c0.2,0.2,0.4,0.3,0.7,0.5c0.5,0.4,0.9,0.8,1.3,1.2
		l22.6,22.6c3,3,4.8,6.8,5.2,10.9c0.1,0.6,0.1,1.2,0.1,1.8c0,0.6,0,1.2-0.1,1.8C339.5,82.5,337.7,86.4,334.8,89.3z M352,76.6
		c0-8-3.1-15.6-8.8-21.2l-22.6-22.6c-2.1-2.1-4.5-3.9-7.1-5.2c-4.3-2.3-9.1-3.5-14.1-3.5c-5.1,0-10,1.3-14.3,3.6
		c-1.1,0.6-2.1,1.2-3.1,1.9c-1.3,1-2.6,2-3.8,3.2L65.4,245.6c0,0,0,0,0,0c0,0-0.1,0.1-0.1,0.2c-0.5,0.5-0.9,1.1-1.1,1.8L41,303.6
		c0,0,0,0.1,0,0.1l-16.5,40c-0.9,2.2-0.4,4.8,1.3,6.5c0.1,0.1,0.3,0.3,0.4,0.4c1.1,0.9,2.4,1.4,3.8,1.4c0.8,0,1.5-0.1,2.3-0.5
		l40-16.5l0,0l56.1-23.1c0.6-0.3,1.2-0.7,1.8-1.1c0.1,0,0.1-0.1,0.2-0.1c0,0,0,0,0,0l163.5-163.5c0,0,49.4-49.4,49.4-49.4
		C348.9,92.2,352,84.6,352,76.6z"/>
</g>
</svg>
