<?xml version="1.0" encoding="utf-8"?>
<!-- Generator: Adobe Illustrator 16.0.0, SVG Export Plug-In . SVG Version: 6.00 Build 0)  -->
<!DOCTYPE svg PUBLIC "-//W3C//DTD SVG 1.1//EN" "http://www.w3.org/Graphics/SVG/1.1/DTD/svg11.dtd">
<svg version="1.1" id="Layer_1" xmlns="http://www.w3.org/2000/svg" xmlns:xlink="http://www.w3.org/1999/xlink" x="0px" y="0px"
	 width="423.2px" height="510px" viewBox="0 0 423.2 510" enable-background="new 0 0 423.2 510" xml:space="preserve">
<g>
	<defs>
		<rect id="SVGID_1_" width="423.2" height="510"/>
	</defs>
	<clipPath id="SVGID_2_">
		<use xlink:href="#SVGID_1_"  overflow="visible"/>
	</clipPath>
	<path clip-path="url(#SVGID_2_)" fill="#FFFFFF" d="M141.1,149.2c0-4.5,3.6-8.1,8.1-8.1c4.5,0,8.1,3.6,8.1,8.1v344.5h151.9v-89.5
		c0-4.5,3.6-8.1,8.1-8.1h89.5V16.3H157.3v100.4c0,4.5-3.6,8.1-8.1,8.1c-4.5,0-8.1-3.6-8.1-8.1V16.3H59.7v84.1h19
		c13.5,0,24.4,11,24.4,24.4s-11,24.4-24.4,24.4h-19v81.4h19c13.5,0,24.4,11,24.4,24.4s-11,24.4-24.4,24.4h-19v81.4h19
		c13.5,0,24.4,11,24.4,24.4c0,13.5-11,24.4-24.4,24.4h-19v84.1h81.4V149.2z"/>
	<polygon clip-path="url(#SVGID_2_)" fill="#98D9D5" points="325.5,412.3 325.5,482.2 395.4,412.3 	"/>
	<path clip-path="url(#SVGID_2_)" fill="#F2484B" d="M149.2,141.1c-4.5,0-8.1,3.6-8.1,8.1v344.5h16.3V149.2
		C157.3,144.7,153.7,141.1,149.2,141.1"/>
	<path clip-path="url(#SVGID_2_)" fill="#F2484B" d="M149.2,124.8c4.5,0,8.1-3.6,8.1-8.1V16.3h-16.3v100.4
		C141.1,121.1,144.7,124.8,149.2,124.8"/>
	<path clip-path="url(#SVGID_2_)" fill="#FFCC75" d="M51.4,393.4c0,0,0.1,0,0.1,0c0,0,0.1,0,0.1,0h27c4.5,0,8.1-3.7,8.1-8.1
		s-3.6-8.1-8.1-8.1H24.4c-4.5,0-8.1,3.7-8.1,8.1s3.7,8.1,8.1,8.1H51.4z"/>
	<path clip-path="url(#SVGID_2_)" fill="#FFCC75" d="M78.7,263.1c4.5,0,8.1-3.7,8.1-8.1c0-4.5-3.6-8.1-8.1-8.1H24.4
		c-4.5,0-8.1,3.7-8.1,8.1c0,4.5,3.7,8.1,8.1,8.1H78.7z"/>
	<path clip-path="url(#SVGID_2_)" fill="#FFCC75" d="M78.7,132.9c4.5,0,8.1-3.6,8.1-8.1c0-4.5-3.6-8.1-8.1-8.1H51.6H24.4
		c-4.5,0-8.1,3.7-8.1,8.1c0,4.5,3.7,8.1,8.1,8.1H78.7z"/>
	<path clip-path="url(#SVGID_2_)" fill="#082947" d="M420.9,409.8c0.1-0.1,0.3-0.3,0.4-0.5c0-0.1,0.1-0.1,0.1-0.2
		c0.1-0.2,0.2-0.3,0.3-0.5c0,0,0.1-0.1,0.1-0.2c0.1-0.2,0.2-0.4,0.3-0.5c0,0,0-0.1,0-0.1c0.1-0.2,0.2-0.4,0.3-0.6c0,0,0,0,0-0.1
		c0.1-0.2,0.2-0.5,0.2-0.7c0,0,0,0,0-0.1c0.1-0.2,0.1-0.5,0.2-0.7c0-0.1,0-0.1,0-0.2c0-0.2,0.1-0.4,0.1-0.6c0-0.3,0-0.5,0-0.8V8.1
		c0-4.5-3.6-8.1-8.1-8.1H51.5c-4.5,0-8.1,3.6-8.1,8.1v92.2h-19C11,100.4,0,111.3,0,124.8c0,13.5,11,24.4,24.4,24.4h19v81.4h-19
		C11,230.6,0,241.5,0,255c0,13.5,11,24.4,24.4,24.4h19v81.4h-19C11,360.8,0,371.8,0,385.2s11,24.4,24.4,24.4h19v92.2
		c0,4.5,3.6,8.1,8.1,8.1h265.9c0.3,0,0.5,0,0.8,0c0.2,0,0.4-0.1,0.6-0.1c0.1,0,0.1,0,0.2,0c0.2,0,0.5-0.1,0.7-0.2c0,0,0,0,0.1,0
		c0.2-0.1,0.5-0.2,0.7-0.2c0,0,0,0,0.1,0c0.2-0.1,0.4-0.2,0.6-0.3c0,0,0.1,0,0.1,0c0.2-0.1,0.4-0.2,0.5-0.3c0,0,0.1-0.1,0.1-0.1
		c0.2-0.1,0.3-0.2,0.5-0.3c0.1,0,0.1-0.1,0.2-0.1c0.2-0.1,0.3-0.3,0.5-0.4c0,0,0.1-0.1,0.1-0.1l97.7-97.7
		C420.9,409.9,420.9,409.9,420.9,409.8 M16.3,385.2c0-4.5,3.6-8.1,8.1-8.1h54.3c4.5,0,8.1,3.7,8.1,8.1c0,4.5-3.7,8.1-8.1,8.1h-27
		c0,0-0.1,0-0.1,0c0,0-0.1,0-0.1,0h-27C19.9,393.4,16.3,389.7,16.3,385.2 M59.7,409.6h19c13.5,0,24.4-11,24.4-24.4
		s-11-24.4-24.4-24.4h-19v-81.4h19c13.5,0,24.4-11,24.4-24.4c0-13.5-11-24.4-24.4-24.4h-19v-81.4h19c13.5,0,24.4-11,24.4-24.4
		c0-13.5-11-24.4-24.4-24.4h-19V16.3h347.2v379.8h-89.5c-4.5,0-8.1,3.6-8.1,8.1v89.5H59.7V409.6z M16.3,255c0-4.5,3.6-8.1,8.1-8.1
		h54.3c4.5,0,8.1,3.7,8.1,8.1c0,4.5-3.7,8.1-8.1,8.1H24.4C19.9,263.1,16.3,259.5,16.3,255 M16.3,124.8c0-4.5,3.6-8.1,8.1-8.1h27.1
		h27.2c4.5,0,8.1,3.6,8.1,8.1c0,4.5-3.7,8.1-8.1,8.1H24.4C19.9,132.9,16.3,129.3,16.3,124.8 M325.5,412.3h69.9l-69.9,69.9V412.3z"/>
</g>
</svg>
