<?xml version="1.0" encoding="utf-8"?>
<!-- Generator: Adobe Illustrator 19.2.1, SVG Export Plug-In . SVG Version: 6.00 Build 0)  -->
<svg version="1.1" id="Layer_1" xmlns="http://www.w3.org/2000/svg" xmlns:xlink="http://www.w3.org/1999/xlink" x="0px" y="0px"
	 viewBox="0 0 100 100" style="enable-background:new 0 0 100 100;" xml:space="preserve">
<style type="text/css">
	.st0{fill:#9AA5AD;}
</style>
<g>
	<polygon class="st0" points="62.8,1.6 18.2,1.6 10.9,1.6 10.9,8.9 10.9,71.5 18.2,71.5 18.2,8.9 62.8,8.9 	"/>
	<polygon class="st0" points="75.7,14.4 31.1,14.4 23.8,14.4 23.8,21.7 23.8,84.3 31.1,84.3 31.1,21.7 75.7,21.7 	"/>
	<path class="st0" d="M37,27.4v71h52.1v-71H37z M69.5,72.8L67,65.7H59l-2.4,7.2h-3l7.7-22.8h3.5l7.8,22.8H69.5z"/>
	<path class="st0" d="M63,52.7L63,52.7c-0.4,1.3-0.8,2.7-1.2,4.1l-2.2,6.6h6.9l-2.2-6.5C63.7,55.3,63.4,54,63,52.7z"/>
</g>
</svg>
