<?xml version="1.0" encoding="iso-8859-1"?>
<!-- Generator: Adobe Illustrator 19.0.0, SVG Export Plug-In . SVG Version: 6.00 Build 0)  -->
<svg xmlns="http://www.w3.org/2000/svg" xmlns:xlink="http://www.w3.org/1999/xlink" version="1.1" id="Capa_1" x="0px" y="0px" viewBox="0 0 489.901 489.901" style="enable-background:new 0 0 489.901 489.901;" xml:space="preserve" width="512px" height="512px">
<g>
	<g>
		<path d="M469.2,448.9H41.6V21.3c0-11.4-9.4-20.8-20.8-20.8S0,9.9,0,21.3v447.3c0,11.4,9.4,20.8,20.8,20.8h447.3    c11.4,0,21.8-8.3,21.8-19.8C490,458.3,480.6,448.9,469.2,448.9z" fill="#FFFFFF"/>
		<path d="M122.8,376.1c8.5,8.5,24.6,5.2,28.1-1l93.6-100.9l43.7,43.7c8.3,8.3,20.8,8.3,29.1,0l60.3-58.7v24.4    c0,11.4,9.4,20.8,20.8,20.8s20.8-9.4,19.8-20.8v-80.1c0-11.4-9.4-20.8-20.8-20.8h-80.1c-11.4,0-20.8,9.4-20.8,20.8    c0,11.4,9.4,20.8,20.8,20.8h37.5l-51,51L259,231.5c-7.3-7.3-18.7-10.5-29.1,0L121.7,347C114.4,355.3,114.4,368.8,122.8,376.1z" fill="#FFFFFF"/>
	</g>
</g>
<g>
</g>
<g>
</g>
<g>
</g>
<g>
</g>
<g>
</g>
<g>
</g>
<g>
</g>
<g>
</g>
<g>
</g>
<g>
</g>
<g>
</g>
<g>
</g>
<g>
</g>
<g>
</g>
<g>
</g>
</svg>
