<?xml version="1.0" encoding="utf-8"?>
<!-- Generator: Adobe Illustrator 16.0.0, SVG Export Plug-In . SVG Version: 6.00 Build 0)  -->
<!DOCTYPE svg PUBLIC "-//W3C//DTD SVG 1.1//EN" "http://www.w3.org/Graphics/SVG/1.1/DTD/svg11.dtd">
<svg version="1.1" id="Layer_1" xmlns="http://www.w3.org/2000/svg" xmlns:xlink="http://www.w3.org/1999/xlink" x="0px" y="0px"
	 width="313px" height="314px" viewBox="0 0 313 314" enable-background="new 0 0 313 314" xml:space="preserve">
<g>
	<defs>
		<rect id="SVGID_1_" y="0.4" width="313" height="313"/>
	</defs>
	<clipPath id="SVGID_2_">
		<use xlink:href="#SVGID_1_"  overflow="visible"/>
	</clipPath>
	<g clip-path="url(#SVGID_2_)">
		<defs>
			<rect id="SVGID_3_" width="313" height="314"/>
		</defs>
		<clipPath id="SVGID_4_">
			<use xlink:href="#SVGID_3_"  overflow="visible"/>
		</clipPath>
		<path fill="#909090" clip-path="url(#SVGID_4_)" d="M171.2,171.7c-31.8,31.8-83.6,31.8-115.4,0C24,139.9,24,88.1,55.8,56.3
			c31.8-31.8,83.6-31.8,115.4,0C203.1,88.1,203.1,139.9,171.2,171.7z M303.8,261.7l-91.5-91.5c24.7-43.4,18.5-99.6-18.4-136.5
			c-44.3-44.3-116.4-44.3-160.7,0c-44.3,44.3-44.3,116.4,0,160.7c36.9,36.9,93.2,43.1,136.5,18.4l91.5,91.5
			c11.7,11.7,30.8,11.7,42.5,0C315.5,292.5,315.5,273.4,303.8,261.7z"/>
	</g>
</g>
</svg>
