<?xml version="1.0" encoding="utf-8"?>
<!-- Generator: Adobe Illustrator 16.0.0, SVG Export Plug-In . SVG Version: 6.00 Build 0)  -->
<!DOCTYPE svg PUBLIC "-//W3C//DTD SVG 1.1//EN" "http://www.w3.org/Graphics/SVG/1.1/DTD/svg11.dtd">
<svg version="1.1" id="Layer_1" xmlns="http://www.w3.org/2000/svg" xmlns:xlink="http://www.w3.org/1999/xlink" x="0px" y="0px"
	 width="324px" height="376px" viewBox="0 0 324 376" enable-background="new 0 0 324 376" xml:space="preserve">
<g>
	<defs>
		<rect id="SVGID_1_" width="324" height="376"/>
	</defs>
	<clipPath id="SVGID_2_">
		<use xlink:href="#SVGID_1_"  overflow="visible"/>
	</clipPath>
	<path clip-path="url(#SVGID_2_)" fill="#FFFFFF" d="M252.3,273.2l-6.9-4c-2.9-1.7-3.9-5.3-2.2-8.2c1.7-2.9,5.3-3.9,8.2-2.2l6.9,4
		c2.9,1.7,3.9,5.3,2.2,8.2c-1.1,1.9-3.1,3-5.2,3C254.3,274.1,253.3,273.8,252.3,273.2z M237.8,220.1h-57.9V258c0,9.9-8.1,18-18,18
		c-9.9,0-18-8.1-18-18v-36.4L98.3,176c-7-7-7-18.4,0-25.5c3.4-3.4,7.9-5.3,12.7-5.3c4.8,0,9.3,1.9,12.7,5.3l50.8,50.8
		c0.1,0.1,0.1,0.2,0.2,0.2c1.8,1.8,3.2,4,4,6.5h58.9c3.3,0,6,2.7,6,6S241.1,220.1,237.8,220.1z M218.9,312.7c-0.9,0.5-2,0.8-3,0.8
		c-2.1,0-4.1-1.1-5.2-3l-4-6.9c-1.7-2.9-0.7-6.5,2.2-8.2c2.9-1.7,6.5-0.7,8.2,2.2l4,6.9C222.7,307.4,221.7,311.1,218.9,312.7z
		 M167.9,322c0,3.3-2.7,6-6,6c-3.3,0-6-2.7-6-6v-8c0-3.3,2.7-6,6-6c3.3,0,6,2.7,6,6V322z M117.1,303.6l-4,6.9c-1.1,1.9-3.1,3-5.2,3
		c-1,0-2-0.3-3-0.8c-2.9-1.7-3.9-5.3-2.2-8.2l4-6.9c1.7-2.9,5.3-3.9,8.2-2.2C117.8,297.1,118.8,300.7,117.1,303.6z M80.6,167.1
		c-1.1,1.9-3.1,3-5.2,3c-1,0-2.1-0.3-3-0.8l-6.9-4c-2.9-1.7-3.9-5.3-2.2-8.2c1.7-2.9,5.3-3.9,8.2-2.2l6.9,4
		C81.3,160.6,82.2,164.3,80.6,167.1z M78.4,269.2l-6.9,4c-0.9,0.5-2,0.8-3,0.8c-2.1,0-4.1-1.1-5.2-3c-1.7-2.9-0.7-6.5,2.2-8.2l6.9-4
		c2.9-1.7,6.5-0.7,8.2,2.2C82.2,263.9,81.3,267.6,78.4,269.2z M54,220.1c-3.3,0-6-2.7-6-6s2.7-6,6-6h8c3.3,0,6,2.7,6,6s-2.7,6-6,6
		H54z M105,115.5c2.9-1.7,6.5-0.7,8.2,2.2l4,6.9c1.7,2.9,0.7,6.5-2.2,8.2c-0.9,0.5-2,0.8-3,0.8c-2.1,0-4.1-1.1-5.2-3l-4-6.9
		C101.1,120.8,102.1,117.1,105,115.5z M155.9,106.2c0-3.3,2.7-6,6-6c3.3,0,6,2.7,6,6v8c0,3.3-2.7,6-6,6c-3.3,0-6-2.7-6-6V106.2z
		 M206.7,124.6l4-6.9c1.7-2.9,5.3-3.9,8.2-2.2c2.9,1.7,3.9,5.3,2.2,8.2l-4,6.9c-1.1,1.9-3.1,3-5.2,3c-1,0-2.1-0.3-3-0.8
		C206,131.1,205,127.4,206.7,124.6z M245.4,159l6.9-4c2.9-1.7,6.5-0.7,8.2,2.2c1.7,2.9,0.7,6.5-2.2,8.2l-6.9,4c-0.9,0.5-2,0.8-3,0.8
		c-2.1,0-4.1-1.1-5.2-3C241.6,164.3,242.6,160.6,245.4,159z M269.8,208.1c3.3,0,6,2.7,6,6s-2.7,6-6,6h-8c-3.3,0-6-2.7-6-6s2.7-6,6-6
		H269.8z M258.6,294.6c18.8-22.6,29.2-51.2,29.2-80.5c0-69.4-56.5-125.9-125.9-125.9C92.5,88.2,36,144.7,36,214.1
		S92.5,340,161.9,340c29.3,0,57.9-10.4,80.5-29.2c2.5-2.1,6.2-1.8,8.4,0.7c3-2.7,5.8-5.5,8.5-8.5
		C256.8,300.8,256.5,297.1,258.6,294.6z"/>
	<path clip-path="url(#SVGID_2_)" fill="#BD1515" d="M161.9,220.1c3.3,0,6-2.7,6-6s-2.7-6-6-6c-3.3,0-6,2.7-6,6
		S158.6,220.1,161.9,220.1z"/>
	<path clip-path="url(#SVGID_2_)" fill="#FFCC75" d="M145.7,206.3c1.8-3.7,4.8-6.7,8.5-8.5L115.3,159c-1.1-1.1-2.6-1.8-4.2-1.8
		c-1.6,0-3.1,0.6-4.2,1.8c-2.3,2.3-2.3,6.1,0,8.5L145.7,206.3z"/>
	<path clip-path="url(#SVGID_2_)" fill="#F2484B" d="M167.9,231.1c-1.9,0.7-3.9,1-6,1c-2.1,0-4.1-0.4-6-1V258c0,3.3,2.7,6,6,6
		c3.3,0,6-2.7,6-6V231.1z"/>
	<path clip-path="url(#SVGID_2_)" fill="#F2484B" d="M267.8,302.3c-2.1,2.5-5.9,2.9-8.4,0.8c0,0-0.1-0.1-0.1-0.1
		c-2.7,3-5.5,5.8-8.5,8.5c0,0,0.1,0.1,0.1,0.1c2.1,2.5,1.8,6.3-0.8,8.4c-24.7,20.6-56,32-88.2,32C85.9,352,24,290.1,24,214.1
		c0-76,61.9-137.9,137.9-137.9c76,0,137.9,61.9,137.9,137.9C299.8,246.2,288.4,277.6,267.8,302.3z M161.9,64.2
		C79.2,64.2,12,131.4,12,214.1C12,296.8,79.2,364,161.9,364c82.7,0,149.9-67.2,149.9-149.9C311.8,131.4,244.6,64.2,161.9,64.2z"/>
	<path clip-path="url(#SVGID_2_)" fill="#F2484B" d="M308.2,55.5c-2.2-13.6-9.5-25.6-20.6-33.7c-8.9-6.5-19.4-9.9-30.3-9.9
		c-14.5,0-28.3,6.1-38,16.6l82.9,60.3C308,78.8,310.1,67.2,308.2,55.5z"/>
	<path clip-path="url(#SVGID_2_)" fill="#F2484B" d="M104.4,28.6C94.7,18.1,80.9,12,66.5,12c-10.9,0-21.4,3.4-30.3,9.9
		C25,30,17.7,41.9,15.6,55.5c-1.8,11.6,0.3,23.3,6,33.3L104.4,28.6z"/>
</g>
<g>
	<defs>
		<rect id="SVGID_3_" y="0" width="324" height="376"/>
	</defs>
	<clipPath id="SVGID_4_">
		<use xlink:href="#SVGID_3_"  overflow="visible"/>
	</clipPath>
	<g clip-path="url(#SVGID_4_)">
		<defs>
			<rect id="SVGID_5_" width="324" height="376"/>
		</defs>
		<clipPath id="SVGID_6_">
			<use xlink:href="#SVGID_5_"  overflow="visible"/>
		</clipPath>
		<path clip-path="url(#SVGID_6_)" fill="#082947" d="M161.9,364C79.2,364,12,296.8,12,214.1c0-82.7,67.2-149.9,149.9-149.9
			c82.7,0,149.9,67.2,149.9,149.9C311.8,296.8,244.6,364,161.9,364z M167.9,52.3V40.2h10c3.3,0,6-2.7,6-6c0-3.3-2.7-6-6-6h-32
			c-3.3,0-6,2.7-6,6c0,3.3,2.7,6,6,6h10v12.1C69.4,55.5,0,126.8,0,214.1C0,303.4,72.6,376,161.9,376c89.3,0,161.9-72.6,161.9-161.9
			C323.8,126.8,254.4,55.5,167.9,52.3z"/>
		<path clip-path="url(#SVGID_6_)" fill="#082947" d="M15.6,55.5C17.7,41.9,25,30,36.2,21.9c8.9-6.5,19.4-9.9,30.3-9.9
			c14.5,0,28.3,6.1,38,16.6L21.5,88.9C15.8,78.8,13.7,67.2,15.6,55.5z M19.9,103.5c1.2,0,2.5-0.4,3.5-1.1l93.2-67.7
			c1.3-0.9,2.2-2.3,2.4-3.9c0.2-1.6-0.1-3.2-1.1-4.5C106,9.8,86.8,0,66.5,0C53,0,40.1,4.2,29.1,12.2C15.4,22.2,6.4,36.9,3.7,53.7
			C1,70.5,5.1,87.3,15.1,101C16.3,102.6,18.1,103.5,19.9,103.5z"/>
		<path clip-path="url(#SVGID_6_)" fill="#082947" d="M257.3,12c10.9,0,21.4,3.4,30.3,9.9c11.1,8.1,18.5,20.1,20.6,33.7
			c1.8,11.6-0.3,23.3-6,33.3l-82.9-60.3C229.1,18.1,242.9,12,257.3,12z M207.2,34.6l93.2,67.7c1.1,0.8,2.3,1.1,3.5,1.1
			c1.9,0,3.7-0.9,4.9-2.5c10-13.7,14-30.6,11.4-47.3c-2.7-16.8-11.7-31.5-25.4-41.5C283.7,4.2,270.8,0,257.3,0
			c-20.3,0-39.6,9.8-51.5,26.2c-0.9,1.3-1.3,2.9-1.1,4.5C205,32.2,205.9,33.7,207.2,34.6z"/>
	</g>
</g>
<g>
	<defs>
		<rect id="SVGID_7_" width="324" height="376"/>
	</defs>
	<clipPath id="SVGID_8_">
		<use xlink:href="#SVGID_7_"  overflow="visible"/>
	</clipPath>
	<path clip-path="url(#SVGID_8_)" fill="#082947" d="M161.9,120.2c3.3,0,6-2.7,6-6v-8c0-3.3-2.7-6-6-6c-3.3,0-6,2.7-6,6v8
		C155.9,117.5,158.6,120.2,161.9,120.2z"/>
	<path clip-path="url(#SVGID_8_)" fill="#082947" d="M106.8,130.6c1.1,1.9,3.1,3,5.2,3c1,0,2.1-0.3,3-0.8c2.9-1.7,3.9-5.3,2.2-8.2
		l-4-6.9c-1.7-2.9-5.3-3.9-8.2-2.2c-2.9,1.7-3.9,5.3-2.2,8.2L106.8,130.6z"/>
	<path clip-path="url(#SVGID_8_)" fill="#082947" d="M78.4,159l-6.9-4c-2.9-1.7-6.5-0.7-8.2,2.2c-1.7,2.9-0.7,6.5,2.2,8.2l6.9,4
		c0.9,0.5,2,0.8,3,0.8c2.1,0,4.1-1.1,5.2-3C82.2,164.3,81.3,160.6,78.4,159z"/>
	<path clip-path="url(#SVGID_8_)" fill="#082947" d="M68,214.1c0-3.3-2.7-6-6-6h-8c-3.3,0-6,2.7-6,6s2.7,6,6,6h8
		C65.3,220.1,68,217.4,68,214.1z"/>
	<path clip-path="url(#SVGID_8_)" fill="#082947" d="M72.4,258.9l-6.9,4c-2.9,1.7-3.9,5.3-2.2,8.2c1.1,1.9,3.1,3,5.2,3
		c1,0,2.1-0.3,3-0.8l6.9-4c2.9-1.7,3.9-5.3,2.2-8.2C78.9,258.2,75.3,257.2,72.4,258.9z"/>
	<path clip-path="url(#SVGID_8_)" fill="#082947" d="M115,295.4c-2.9-1.7-6.5-0.7-8.2,2.2l-4,6.9c-1.7,2.9-0.7,6.5,2.2,8.2
		c0.9,0.5,2,0.8,3,0.8c2.1,0,4.1-1.1,5.2-3l4-6.9C118.8,300.7,117.8,297.1,115,295.4z"/>
	<path clip-path="url(#SVGID_8_)" fill="#082947" d="M161.9,308c-3.3,0-6,2.7-6,6v8c0,3.3,2.7,6,6,6c3.3,0,6-2.7,6-6v-8
		C167.9,310.7,165.2,308,161.9,308z"/>
	<path clip-path="url(#SVGID_8_)" fill="#082947" d="M217,297.6c-1.7-2.9-5.3-3.9-8.2-2.2c-2.9,1.7-3.9,5.3-2.2,8.2l4,6.9
		c1.1,1.9,3.1,3,5.2,3c1,0,2.1-0.3,3-0.8c2.9-1.7,3.9-5.3,2.2-8.2L217,297.6z"/>
	<path clip-path="url(#SVGID_8_)" fill="#082947" d="M260.5,271.1c1.7-2.9,0.7-6.5-2.2-8.2l-6.9-4c-2.9-1.7-6.5-0.7-8.2,2.2
		c-1.7,2.9-0.7,6.5,2.2,8.2l6.9,4c0.9,0.5,2,0.8,3,0.8C257.4,274.1,259.4,273,260.5,271.1z"/>
	<path clip-path="url(#SVGID_8_)" fill="#082947" d="M255.8,214.1c0,3.3,2.7,6,6,6h8c3.3,0,6-2.7,6-6s-2.7-6-6-6h-8
		C258.5,208.1,255.8,210.8,255.8,214.1z"/>
	<path clip-path="url(#SVGID_8_)" fill="#082947" d="M248.4,170.1c1,0,2-0.3,3-0.8l6.9-4c2.9-1.7,3.9-5.3,2.2-8.2
		c-1.7-2.9-5.3-3.9-8.2-2.2l-6.9,4c-2.9,1.7-3.9,5.3-2.2,8.2C244.3,169.1,246.4,170.1,248.4,170.1z"/>
	<path clip-path="url(#SVGID_8_)" fill="#082947" d="M208.9,132.8c0.9,0.5,2,0.8,3,0.8c2.1,0,4.1-1.1,5.2-3l4-6.9
		c1.7-2.9,0.7-6.5-2.2-8.2c-2.9-1.7-6.5-0.7-8.2,2.2l-4,6.9C205,127.4,206,131.1,208.9,132.8z"/>
	<path clip-path="url(#SVGID_8_)" fill="#082947" d="M106.8,159c1.1-1.1,2.6-1.8,4.2-1.8c1.6,0,3.1,0.6,4.2,1.8l38.8,38.8
		c-3.7,1.8-6.7,4.8-8.5,8.5l-38.8-38.8C104.5,165.2,104.5,161.4,106.8,159z M155.9,214.1c0-3.3,2.7-6,6-6c3.3,0,6,2.7,6,6
		s-2.7,6-6,6C158.6,220.1,155.9,217.4,155.9,214.1z M161.9,264c-3.3,0-6-2.7-6-6v-26.9c1.9,0.7,3.9,1,6,1c2.1,0,4.1-0.4,6-1V258
		C167.9,261.3,165.2,264,161.9,264z M237.8,208.1h-58.9c-0.9-2.4-2.3-4.7-4-6.5c-0.1-0.1-0.1-0.2-0.2-0.2l-50.8-50.8
		c-3.4-3.4-7.9-5.3-12.7-5.3c-4.8,0-9.3,1.9-12.7,5.3c-7,7-7,18.4,0,25.5l45.6,45.6V258c0,9.9,8.1,18,18,18c9.9,0,18-8.1,18-18
		v-37.9h57.9c3.3,0,6-2.7,6-6S241.1,208.1,237.8,208.1z"/>
	<path clip-path="url(#SVGID_8_)" fill="#082947" d="M161.9,76.2C85.9,76.2,24,138.1,24,214.1c0,76,61.9,137.9,137.9,137.9
		c32.1,0,63.5-11.4,88.2-32c2.5-2.1,2.9-5.9,0.8-8.4c0,0-0.1-0.1-0.1-0.1c-2.1-2.4-5.9-2.8-8.4-0.7c-22.6,18.8-51.2,29.2-80.5,29.2
		C92.5,340,36,283.5,36,214.1S92.5,88.2,161.9,88.2c69.4,0,125.9,56.5,125.9,125.9c0,29.3-10.4,57.9-29.2,80.5
		c-2.1,2.5-1.8,6.2,0.7,8.4c0,0,0.1,0.1,0.1,0.1c2.5,2.1,6.3,1.8,8.4-0.8c20.6-24.7,32-56,32-88.2
		C299.8,138.1,237.9,76.2,161.9,76.2z"/>
</g>
</svg>
