<?xml version="1.0" encoding="utf-8"?>
<!-- Generator: Adobe Illustrator 19.2.1, SVG Export Plug-In . SVG Version: 6.00 Build 0)  -->
<svg version="1.1" id="Layer_1" xmlns="http://www.w3.org/2000/svg" xmlns:xlink="http://www.w3.org/1999/xlink" x="0px" y="0px"
	 viewBox="0 0 62 62" style="enable-background:new 0 0 62 62;" xml:space="preserve">
<style type="text/css">
	.st0{fill:#618811;}
</style>
<path class="st0" d="M43.7,29.9L26,19c-1.4-0.9-2.4-0.2-2.4,1.4v21.3c0,1.5,1,2.2,2.4,1.4l17.7-10.9c0,0,0.7-0.5,0.7-1
	C44.4,30.2,43.7,29.9,43.7,29.9z"/>
<path class="st0" d="M31,61C14.5,61,1,47.5,1,31S14.5,1,31,1s30,13.5,30,30S47.5,61,31,61z M31,2.9C15.5,2.9,2.9,15.5,2.9,31
	S15.5,59.1,31,59.1S59.1,46.5,59.1,31S46.5,2.9,31,2.9z"/>
</svg>
