<?xml version="1.0" encoding="utf-8"?>
<!-- Generator: Adobe Illustrator 16.0.0, SVG Export Plug-In . SVG Version: 6.00 Build 0)  -->
<!DOCTYPE svg PUBLIC "-//W3C//DTD SVG 1.1//EN" "http://www.w3.org/Graphics/SVG/1.1/DTD/svg11.dtd">
<svg version="1.1" id="Layer_1" xmlns="http://www.w3.org/2000/svg" xmlns:xlink="http://www.w3.org/1999/xlink" x="0px" y="0px"
	 width="376px" height="376px" viewBox="0 0 376 376" enable-background="new 0 0 376 376" xml:space="preserve">
<g>
	<defs>
		<rect id="SVGID_1_" width="376" height="376"/>
	</defs>
	<clipPath id="SVGID_2_">
		<use xlink:href="#SVGID_1_"  overflow="visible"/>
	</clipPath>
	<path clip-path="url(#SVGID_2_)" fill="#6DA8D6" d="M212,34.4h34.4V12H194v28.4h12C206,37.1,208.7,34.4,212,34.4z"/>
	<rect x="194" y="265.3" clip-path="url(#SVGID_2_)" fill="#6DA8D6" width="42" height="74.7"/>
	<rect x="140" y="265.3" clip-path="url(#SVGID_2_)" fill="#6DA8D6" width="42" height="74.7"/>
	<rect x="140" y="352" clip-path="url(#SVGID_2_)" fill="#FFCC75" width="96" height="12"/>
	<path clip-path="url(#SVGID_2_)" fill="#FFCC75" d="M70.7,283.3c0,3.3-2.7,6-6,6c-3.3,0-6-2.7-6-6v-24c0-3.3,2.7-6,6-6
		c3.3,0,6,2.7,6,6V283.3z M41.3,283.3c0,3.3-2.7,6-6,6c-3.3,0-6-2.7-6-6v-24c0-3.3,2.7-6,6-6c3.3,0,6,2.7,6,6V283.3z M88,346V236H12
		v128h82v-12C90.7,352,88,349.3,88,346z"/>
	<path clip-path="url(#SVGID_2_)" fill="#FFCC75" d="M305.3,259.3c0-3.3,2.7-6,6-6c3.3,0,6,2.7,6,6v24c0,3.3-2.7,6-6,6
		c-3.3,0-6-2.7-6-6V259.3z M334.7,259.3c0-3.3,2.7-6,6-6c3.3,0,6,2.7,6,6v24c0,3.3-2.7,6-6,6c-3.3,0-6-2.7-6-6V259.3z M364,364V236
		h-76v110c0,3.3-2.7,6-6,6v12H364z"/>
	<path clip-path="url(#SVGID_2_)" fill="#F2EBD9" d="M188,233.3c-16,0-29.1-13-29.1-29.1s13-29.1,29.1-29.1c16,0,29.1,13,29.1,29.1
		S204,233.3,188,233.3z M282,352c-3.3,0-6-2.7-6-6V155.2h-42c-3.3,0-6-2.7-6-6h-12c0,3.3-2.7,6-6,6H100V346c0,3.3-2.7,6-6,6v12h34
		V259.3c0-3.3,2.7-6,6-6h108c3.3,0,6,2.7,6,6V364h34V352z"/>
	<path clip-path="url(#SVGID_2_)" fill="#98D9D5" d="M188,187.2c-9.4,0-17.1,7.7-17.1,17.1s7.7,17.1,17.1,17.1s17.1-7.7,17.1-17.1
		S197.4,187.2,188,187.2z"/>
	<rect x="12" y="204" clip-path="url(#SVGID_2_)" fill="#F2484B" width="76" height="20"/>
	<rect x="288" y="204" clip-path="url(#SVGID_2_)" fill="#F2484B" width="76" height="20"/>
</g>
<g>
	<defs>
		<rect id="SVGID_3_" x="0.1" y="0" width="375.9" height="376"/>
	</defs>
	<clipPath id="SVGID_4_">
		<use xlink:href="#SVGID_3_"  overflow="visible"/>
	</clipPath>
	<g clip-path="url(#SVGID_4_)">
		<defs>
			<rect id="SVGID_5_" width="376" height="376"/>
		</defs>
		<clipPath id="SVGID_6_">
			<use xlink:href="#SVGID_5_"  overflow="visible"/>
		</clipPath>
		<path clip-path="url(#SVGID_6_)" fill="#F2484B" d="M228,149.2c0-3.3,2.7-6,6-6h30.8L188,82.5l-76.8,60.7H210c3.3,0,6,2.7,6,6
			C216,149.2,228,149.2,228,149.2z"/>
		<path clip-path="url(#SVGID_6_)" fill="#082947" d="M12,204h76v20H12V204z M288,204h76v20h-76V204z M248,259.3c0-3.3-2.7-6-6-6
			H134c-3.3,0-6,2.7-6,6V364H12V236h76v110c0,3.3,2.7,6,6,6s6-2.7,6-6V155.2h110c3.3,0,6-2.7,6-6c0-3.3-2.7-6-6-6h-98.8L188,82.5
			l76.8,60.7H234c-3.3,0-6,2.7-6,6c0,3.3,2.7,6,6,6h42V346c0,3.3,2.7,6,6,6s6-2.7,6-6V236h76v128H248V259.3z M140,265.3h42V340h-42
			V265.3z M194,265.3h42V340h-42V265.3z M140,352h96v12h-96V352z M370,192h-82v-42.8c0-0.2,0-0.4,0-0.7c0-0.1,0-0.1,0-0.2
			c0-0.2,0-0.3-0.1-0.5c0-0.1,0-0.1,0-0.2c0-0.1-0.1-0.3-0.1-0.4c0-0.1,0-0.1-0.1-0.2c-0.1-0.1-0.1-0.3-0.2-0.4
			c0-0.1-0.1-0.1-0.1-0.2c-0.1-0.1-0.1-0.3-0.2-0.4c0-0.1-0.1-0.1-0.1-0.2c-0.1-0.1-0.2-0.2-0.3-0.4c0,0-0.1-0.1-0.1-0.1
			c-0.1-0.2-0.3-0.3-0.4-0.5c0,0,0,0,0,0c-0.1-0.1-0.3-0.3-0.4-0.4c0,0,0,0,0,0L194,71.9V12h52.4v22.4H212c-3.3,0-6,2.7-6,6
			c0,3.3,2.7,6,6,6h40.4c3.3,0,6-2.7,6-6V6c0-3.3-2.7-6-6-6H188c-3.3,0-6,2.7-6,6v65.9l-91.7,72.6c0,0,0,0,0,0
			c-0.2,0.1-0.3,0.2-0.4,0.4c0,0,0,0,0,0c-0.1,0.1-0.3,0.3-0.4,0.5c0,0-0.1,0.1-0.1,0.1c-0.1,0.1-0.2,0.2-0.3,0.4
			c0,0.1-0.1,0.1-0.1,0.2c-0.1,0.1-0.1,0.2-0.2,0.4c0,0.1-0.1,0.1-0.1,0.2c-0.1,0.1-0.1,0.3-0.2,0.4c0,0.1,0,0.1-0.1,0.2
			c0,0.1-0.1,0.3-0.1,0.4c0,0.1,0,0.1,0,0.2c0,0.2-0.1,0.3-0.1,0.5c0,0.1,0,0.1,0,0.2c0,0.2,0,0.4,0,0.7V192H6c-3.3,0-6,2.7-6,6v172
			c0,3.3,2.7,6,6,6h364c3.3,0,6-2.7,6-6V198C376,194.7,373.3,192,370,192z"/>
	</g>
</g>
<g>
	<defs>
		<rect id="SVGID_7_" width="376" height="376"/>
	</defs>
	<clipPath id="SVGID_8_">
		<use xlink:href="#SVGID_7_"  overflow="visible"/>
	</clipPath>
	<path clip-path="url(#SVGID_8_)" fill="#082947" d="M35.3,253.3c-3.3,0-6,2.7-6,6v24c0,3.3,2.7,6,6,6c3.3,0,6-2.7,6-6v-24
		C41.3,256,38.6,253.3,35.3,253.3z"/>
	<path clip-path="url(#SVGID_8_)" fill="#082947" d="M64.7,253.3c-3.3,0-6,2.7-6,6v24c0,3.3,2.7,6,6,6c3.3,0,6-2.7,6-6v-24
		C70.7,256,68,253.3,64.7,253.3z"/>
	<path clip-path="url(#SVGID_8_)" fill="#082947" d="M340.7,289.3c3.3,0,6-2.7,6-6v-24c0-3.3-2.7-6-6-6c-3.3,0-6,2.7-6,6v24
		C334.7,286.6,337.4,289.3,340.7,289.3z"/>
	<path clip-path="url(#SVGID_8_)" fill="#082947" d="M311.3,289.3c3.3,0,6-2.7,6-6v-24c0-3.3-2.7-6-6-6c-3.3,0-6,2.7-6,6v24
		C305.3,286.6,308,289.3,311.3,289.3z"/>
	<path clip-path="url(#SVGID_8_)" fill="#082947" d="M188,221.3c-9.4,0-17.1-7.7-17.1-17.1s7.7-17.1,17.1-17.1s17.1,7.7,17.1,17.1
		S197.4,221.3,188,221.3z M188,175.2c-16,0-29.1,13-29.1,29.1s13,29.1,29.1,29.1c16,0,29.1-13,29.1-29.1S204,175.2,188,175.2z"/>
</g>
</svg>
