<?xml version="1.0" encoding="utf-8"?>
<!-- Generator: Adobe Illustrator 16.0.0, SVG Export Plug-In . SVG Version: 6.00 Build 0)  -->
<!DOCTYPE svg PUBLIC "-//W3C//DTD SVG 1.1//EN" "http://www.w3.org/Graphics/SVG/1.1/DTD/svg11.dtd">
<svg version="1.1" id="Layer_1" xmlns="http://www.w3.org/2000/svg" xmlns:xlink="http://www.w3.org/1999/xlink" x="0px" y="0px"
	 width="62px" height="62px" viewBox="0 0 62 62" enable-background="new 0 0 62 62" xml:space="preserve">
<path display="none" fill="#9FC74E" d="M38.3,30.4L27.9,24c-0.8-0.5-1.4-0.1-1.4,0.8v12.5c0,0.9,0.6,1.3,1.4,0.8l10.4-6.4
	c0,0,0.4-0.3,0.4-0.6C38.7,30.6,38.3,30.4,38.3,30.4z"/>
<path fill="#9FC74E" d="M31,61C14.5,61,1,47.5,1,31S14.5,1,31,1s30,13.5,30,30S47.5,61,31,61z M31,2.9C15.5,2.9,2.9,15.5,2.9,31
	S15.5,59.1,31,59.1S59.1,46.5,59.1,31S46.5,2.9,31,2.9z"/>
<g>
	<rect x="25.9" y="23.8" fill="#9FC74E" width="4.5" height="14.5"/>
	<rect x="32.5" y="23.8" fill="#9FC74E" width="4.5" height="14.5"/>
</g>
</svg>
