<?xml version="1.0" encoding="utf-8"?>
<!-- Generator: Adobe Illustrator 19.2.1, SVG Export Plug-In . SVG Version: 6.00 Build 0)  -->
<svg version="1.1" id="Layer_1" xmlns="http://www.w3.org/2000/svg" xmlns:xlink="http://www.w3.org/1999/xlink" x="0px" y="0px"
	 viewBox="0 0 16 26" style="enable-background:new 0 0 16 26;" xml:space="preserve">
<style type="text/css">
	.st0{fill:#E8A72D;}
</style>
<g>
	<path class="st0" d="M12.5,4.6c0-2.5-1.6-4.4-4.5-4.4s-4.4,2-4.4,4.4v1.1h9V4.6H12.5z"/>
</g>
<g>
	<g>
		<g>
			<path class="st0" d="M8,16.1c2.9,0,4.5-2,4.5-4.4V6.4h-9v5.3C3.6,14.1,5.1,16.1,8,16.1z"/>
		</g>
		<g>
			<path class="st0" d="M14.2,5.4v6.2c0,3.4-2.3,6.2-6.2,6.2S1.8,15,1.8,11.6V5.4c-1-1-1.8,0-1.8,0v6.2c0,4.1,3.1,7.5,7.1,7.9v2.8
				H3.6L2.7,25H13l-0.9-2.6H8.9v-2.8c4-0.4,7.1-3.8,7.1-7.9V5.4C14.9,4.4,14.2,5.4,14.2,5.4z"/>
		</g>
	</g>
</g>
</svg>
