<?xml version="1.0" encoding="utf-8"?>
<!-- Generator: Adobe Illustrator 16.0.0, SVG Export Plug-In . SVG Version: 6.00 Build 0)  -->
<!DOCTYPE svg PUBLIC "-//W3C//DTD SVG 1.1//EN" "http://www.w3.org/Graphics/SVG/1.1/DTD/svg11.dtd">
<svg version="1.1" id="Layer_1" xmlns="http://www.w3.org/2000/svg" xmlns:xlink="http://www.w3.org/1999/xlink" x="0px" y="0px"
	 width="13px" height="13px" viewBox="0 0 13 13" enable-background="new 0 0 13 13" xml:space="preserve">
<g>
	<g>
		<path fill="#909090" d="M4.9,7V6.5C4.6,6.3,4.4,6,4.1,5.8C3.4,6.5,2.7,6.9,2.6,7L2.5,7L2.1,6.4l0.1,0c0,0,0.7-0.5,1.4-1.2
			c-0.7-1-0.9-1.9-0.9-2l0-0.1l0.7-0.2l0,0.1c0,0,0.2,0.8,0.7,1.6C4.7,4,5,3.4,5,2.8H1.9V2h1.7V1.5h0.8V2h1.7v0.8H5.8
			C5.7,3.6,5.3,4.4,4.6,5.2c0.1,0.1,0.2,0.2,0.3,0.3V5.1c0-0.3,0.2-0.5,0.5-0.5h2.2V0.7c0-0.1-0.1-0.1-0.1-0.1H0.3
			c-0.1,0-0.1,0.1-0.1,0.1v7.2C0.2,7.9,0.3,8,0.3,8h4.6V7z"/>
	</g>
</g>
<g>
	<path fill="#909090" d="M9,7.2L9,7.2C8.9,7.5,8.9,7.8,8.8,8.1l-0.3,1h1l-0.3-1C9.2,7.8,9.1,7.5,9,7.2z"/>
	<path fill="#909090" d="M10.1,11L9.7,9.8H8.4L8.1,11H7l1.4-4.6h1.4l1.4,4.6H10.1z M12.7,5H5.5C5.4,5,5.4,5.1,5.4,5.1v7.2
		c0,0.1,0.1,0.1,0.1,0.1h7.2c0.1,0,0.1-0.1,0.1-0.1V5.1C12.8,5.1,12.7,5,12.7,5z"/>
	<polygon fill="#909090" points="3.4,8.3 2.4,8.3 2.4,10 3.3,10.8 5.1,10.8 5.1,9.8 3.4,9.8 	"/>
</g>
</svg>
