<?xml version="1.0" encoding="utf-8"?>
<!-- Generator: Adobe Illustrator 16.0.0, SVG Export Plug-In . SVG Version: 6.00 Build 0)  -->
<!DOCTYPE svg PUBLIC "-//W3C//DTD SVG 1.1//EN" "http://www.w3.org/Graphics/SVG/1.1/DTD/svg11.dtd">
<svg version="1.1" id="Layer_1" xmlns="http://www.w3.org/2000/svg" xmlns:xlink="http://www.w3.org/1999/xlink" x="0px" y="0px"
	 width="296px" height="376px" viewBox="0 0 296 376" enable-background="new 0 0 296 376" xml:space="preserve">
<g>
	<defs>
		<rect id="SVGID_1_" width="296" height="376"/>
	</defs>
	<clipPath id="SVGID_2_">
		<use xlink:href="#SVGID_1_"  overflow="visible"/>
	</clipPath>
	<path clip-path="url(#SVGID_2_)" fill="#FFFFFF" d="M212.3,250.2c-17.5-9.4-37.3-15.1-58.3-16.1V252c0,3.3-2.7,6-6,6
		c-3.3,0-6-2.7-6-6v-17.9c-21,0.9-40.8,6.6-58.3,16.1l58.3,58.3V276c0-3.3,2.7-6,6-6c3.3,0,6,2.7,6,6v32.5L212.3,250.2z"/>
	<path clip-path="url(#SVGID_2_)" fill="#FFCC75" d="M83,125c0,35.8,29.2,65,65,65s65-29.2,65-65c0-6.7-1-13.2-3.1-19.6
		c-7.3-3.6-15.5-5.5-23.9-5.5c-12.4,0-24.6,4.4-34.2,12.4c-1.1,0.9-2.5,1.4-3.8,1.4c-1.4,0-2.7-0.5-3.8-1.4
		c-9.6-8-21.7-12.4-34.2-12.4c-8.4,0-16.6,1.9-23.9,5.5C84,111.8,83,118.3,83,125z"/>
	<path clip-path="url(#SVGID_2_)" fill="#6DA8D6" d="M87.2,91.9c7.2-2.6,14.9-4,22.8-4c13.6,0,27,4.3,38,12.2
		c11.1-7.9,24.4-12.2,38-12.2c7.8,0,15.6,1.4,22.8,4V38c0-3.3,2.7-6,6-6V20H87.2V91.9z"/>
</g>
<g>
	<defs>
		<rect id="SVGID_3_" x="0.1" y="0" width="295.9" height="376"/>
	</defs>
	<clipPath id="SVGID_4_">
		<use xlink:href="#SVGID_3_"  overflow="visible"/>
	</clipPath>
	<g clip-path="url(#SVGID_4_)">
		<defs>
			<rect id="SVGID_5_" width="296" height="376"/>
		</defs>
		<clipPath id="SVGID_6_">
			<use xlink:href="#SVGID_5_"  overflow="visible"/>
		</clipPath>
		<path clip-path="url(#SVGID_6_)" fill="#185F8D" d="M70,364h213.9c-2-44.8-25.7-84.1-60.9-107.4l-70.7,70.7c0,0,0,0,0,0
			c-0.1,0.1-0.3,0.2-0.4,0.4c0,0-0.1,0.1-0.1,0.1c-0.1,0.1-0.2,0.2-0.3,0.3c0,0-0.1,0-0.1,0.1c-0.1,0.1-0.2,0.2-0.4,0.2
			c0,0-0.1,0-0.1,0c-0.1,0.1-0.3,0.1-0.4,0.2c0,0,0,0-0.1,0c-0.2,0.1-0.3,0.1-0.5,0.2c0,0,0,0-0.1,0c-0.2,0-0.3,0.1-0.5,0.1
			c0,0-0.1,0-0.1,0c-0.1,0-0.3,0.1-0.4,0.1c-0.2,0-0.4,0-0.6,0s-0.4,0-0.6,0c-0.1,0-0.3,0-0.4-0.1c0,0-0.1,0-0.1,0
			c-0.2,0-0.3-0.1-0.5-0.1c0,0,0,0-0.1,0c-0.2,0-0.3-0.1-0.5-0.2c0,0,0,0-0.1,0c-0.2-0.1-0.3-0.1-0.4-0.2c0,0-0.1,0-0.1,0
			c-0.1-0.1-0.3-0.1-0.4-0.2c0,0-0.1,0-0.1-0.1c-0.1-0.1-0.2-0.2-0.3-0.3c0,0-0.1-0.1-0.1-0.1c-0.1-0.1-0.3-0.2-0.4-0.4c0,0,0,0,0,0
			l-70.7-70.7c-35.2,23.3-59,62.6-60.9,107.4H46c3.3,0,6,2.7,6,6h12C64,366.7,66.7,364,70,364z"/>
		<path clip-path="url(#SVGID_6_)" fill="#082947" d="M148,270c-3.3,0-6,2.7-6,6v32.5l-58.3-58.3c17.5-9.4,37.3-15.1,58.3-16.1V252
			c0,3.3,2.7,6,6,6c3.3,0,6-2.7,6-6v-17.9c21,0.9,40.8,6.6,58.3,16.1L154,308.5V276C154,272.7,151.3,270,148,270z M226,244.3
			c-0.4-0.4-0.9-0.6-1.4-0.8C202.2,229.8,176,222,148,222c-28,0-54.2,7.8-76.6,21.4c-0.5,0.2-0.9,0.5-1.4,0.8C28,270.4,0,317,0,370
			c0,3.3,2.7,6,6,6h40c3.3,0,6-2.7,6-6s-2.7-6-6-6H12.1c2-44.8,25.7-84.1,60.9-107.4l70.7,70.7c0,0,0,0,0,0c0.1,0.1,0.3,0.2,0.4,0.4
			c0,0,0.1,0.1,0.1,0.1c0.1,0.1,0.2,0.2,0.3,0.3c0,0,0.1,0,0.1,0.1c0.1,0.1,0.2,0.2,0.4,0.2c0,0,0.1,0,0.1,0
			c0.1,0.1,0.3,0.1,0.4,0.2c0,0,0,0,0.1,0c0.2,0.1,0.3,0.1,0.5,0.2c0,0,0,0,0.1,0c0.2,0,0.3,0.1,0.5,0.1c0,0,0.1,0,0.1,0
			c0.1,0,0.3,0.1,0.4,0.1c0.2,0,0.4,0,0.6,0s0.4,0,0.6,0c0.1,0,0.3,0,0.4-0.1c0,0,0.1,0,0.1,0c0.2,0,0.3-0.1,0.5-0.1c0,0,0,0,0.1,0
			c0.2,0,0.3-0.1,0.5-0.2c0,0,0,0,0.1,0c0.2-0.1,0.3-0.1,0.4-0.2c0,0,0.1,0,0.1,0c0.1-0.1,0.3-0.1,0.4-0.2c0,0,0.1,0,0.1-0.1
			c0.1-0.1,0.2-0.2,0.3-0.3c0,0,0.1-0.1,0.1-0.1c0.1-0.1,0.3-0.2,0.4-0.4c0,0,0,0,0,0l70.7-70.7c35.2,23.3,59,62.6,60.9,107.4H70
			c-3.3,0-6,2.7-6,6s2.7,6,6,6h220c3.3,0,6-2.7,6-6C296,317,268,270.4,226,244.3z"/>
		<path clip-path="url(#SVGID_6_)" fill="#082947" d="M110,99.8c12.4,0,24.6,4.4,34.2,12.4c1.1,0.9,2.5,1.4,3.8,1.4
			c1.4,0,2.7-0.5,3.8-1.4c9.6-8,21.7-12.4,34.2-12.4c8.4,0,16.6,1.9,23.9,5.5c2.1,6.4,3.1,12.9,3.1,19.6c0,35.8-29.2,65-65,65
			s-65-29.2-65-65c0-6.7,1-13.2,3.1-19.6C93.4,101.8,101.6,99.8,110,99.8z M6,20h69.2v80.2c-2.8,8.1-4.2,16.3-4.2,24.8
			c0,42.5,34.5,77,77,77s77-34.5,77-77c0-8.5-1.4-16.7-4.2-24.8V38c0-3.3-2.7-6-6-6s-6,2.7-6,6v53.9c-7.2-2.6-14.9-4-22.8-4
			c-13.6,0-27,4.3-38,12.2c-11.1-7.9-24.4-12.2-38-12.2c-7.8,0-15.6,1.4-22.8,4V20H268v103.8l-8.7,21.1c-1.3,3.1,0.2,6.6,3.2,7.8
			c3.1,1.3,6.6-0.2,7.8-3.2l3.6-8.8l3.6,8.8c1,2.3,3.2,3.7,5.5,3.7c0.8,0,1.5-0.1,2.3-0.5c3.1-1.3,4.5-4.8,3.2-7.8l-8.7-21.1V20h10
			c3.3,0,6-2.7,6-6s-2.7-6-6-6h-10V6c0-3.3-2.7-6-6-6s-6,2.7-6,6v2H6c-3.3,0-6,2.7-6,6S2.7,20,6,20z"/>
	</g>
</g>
</svg>
